<svg xmlns="http://www.w3.org/2000/svg" viewBox="0 0 33.7 34.2"><path fill="#de8f36" d="M6.8 7.3h26.4v26.3H6.8z"/><path fill="#ea9847" d="M33.2 7.3H6.8L.5.7H27z"/><path fill="#9b7559" d="M30.1 4l-26.4.1-1.1-1.2 26.3-.1z"/><path fill="#b87a2c" d="M.5.7l6.3 6.6v26.3L.5 27.5z"/><path d="M3.7 4.1V7l-.1-.2h-.1l-.1-.2h-.1l-.1-.2h-.1L3 6.2l-.1.1-.1-.2h-.1V6l-.1.1V2.9c.3.4.7.8 1.1 1.2z" fill="#966942"/><path fill="#fff" d="M23 24.3h9.4V31H23z"/><path d="M23.4 30h3.7v.4h-3.7zm0-.7h3.4v.4h-3.4zm.3-2.9h3.4v.4h-3.4zm0-.7h6v.4h-6zm.1-.7h7.8v.4h-7.8zm4 2.5h3.4v.2h-3.4zm.1.6h2v.2h-2z" fill="#6d6e70"/></svg>