<svg version="1.1" id="Layer_1" xmlns="http://www.w3.org/2000/svg" x="0" y="0" viewBox="-7 289 105.7 39.6" xml:space="preserve"><style>.st0{display:none;fill:#d3c40d}</style><g id="Clouds"><path class="st0" d="M334.3 351.3c0-.7-.1-3.9 2.3-6.6 2.8-3.1 6.6-3.1 7.1-3.1-2.1-4.6-1.4-9.9 1.7-13.7 4.4-5.4 11.3-4.6 11.7-4.6.1-7.4 5-14 12-16.3 7.1-2.3 15 .2 19.4 6.3 2.5-5.7 8.7-8.5 14.3-6.9 4.9 1.5 8.4 6.3 8.3 11.7l5.1 6c1.5-.6 4.9-1.8 9.1-1.1 5.7.8 9.2 4.3 10.3 5.4 3-6.4 9.5-10.4 16.3-10 7.6.4 14.1 6.1 15.7 13.9 1.3-.3 8.6-1.7 15.4 3 8.1 5.6 8.5 15 8.6 16H334.3z"/><path d="M-3.7 325h99c0-.6-.2-4.7-3.7-7.7-3.4-2.9-7.4-2.4-8-2.3.1-6.4-3.3-12.3-8.7-15-6.6-3.4-15.3-1.4-20.3 5-4.2-8.3-12.9-13.3-21.9-12.7-9.9.7-18.4 8.1-20.7 18.1-1.4.1-6.2.7-10.3 4.6-4.2 3.9-5.1 8.6-5.4 10z" fill="#fff"/><path class="st0" d="M91.8 331.3c.2-3.2-1.4-6.3-4.1-7.9-3.1-1.8-6.3-.8-6.9-.7-.1-.9-.4-4.7-3.6-7.7-3.9-3.7-9-3.1-9.6-3-.3-.7-1.1-3-3.6-4.6-1.5-1-3-1.2-3.8-1.3-2.8-6.5-9.2-10.7-16.2-10.7-6.9.1-13.2 4.2-16 10.7-1-.2-5.6-.8-9.9 2.3-5.7 4.1-5.4 11.2-5.3 11.7-.9-.2-4.6-1.1-8.4 1-3.5 2-5.6 5.9-5.6 10.2h93z"/></g></svg>