<svg version="1.1" id="Layer_1" xmlns="http://www.w3.org/2000/svg" x="0" y="0" viewBox="0 0 108 67" xml:space="preserve"><style>.st3{fill:#8b5f3c}.st4{fill:#aa7d50}.st5{fill:#fff}.st6{fill:#f8daa8}.st7{fill:#fec994}.st9{fill:#939598}.st10{fill:none;stroke:#939598;stroke-width:.25;stroke-miterlimit:10}.st11{fill:#333}.st13{fill:#e5e7e8}.st14{fill:#f0a446}.st24{fill:#4d4d4d}.st27,.st28{fill:none;stroke:gray;stroke-width:.1;stroke-linecap:round;stroke-linejoin:round;stroke-miterlimit:10}.st28{stroke-width:.2}.st29{fill:#6c6e71}.st30{fill:#808285}</style><g id="Brown"><g id="Brown_x5F_low"><g id="dress"><path class="st3" d="M92 39.8h15.9v10.8H92z"/><path class="st4" d="M91.9 39.8h16v5.5h-16z"/><path class="st5" d="M91 40.1h.9v10.1H91z"/></g><g id="hand"><path class="st6" d="M91 41.2H73.8c-.5-.1-1 .2-1.1.7-.2.5 0 1 .5 1.3H81c.3 0 .5.2.4.4 0 .2-.2.3-.3.3h-9.9c-.4.1-.7.5-.7.9 0 .5.3.9.7 1h9.6c.3 0 .5.2.5.4 0 .1-.1.3-.1.3h-8.8c-.4.2-.6.5-.6.9s.2.8.6 1h8.5s.3 0 .3.2c.1.2 0 .4-.2.6h-5.7c-.5.2-.8.7-.8 1.2 0 .6.6.9.6 1h13.5c.2-.1.6-.3 1-.7.4-.5.5-1 .5-1.2h1v-8.3z"/><path class="st5" d="M76.1 49.7V51h-.8c-.3-.1-.4-.4-.4-.7 0-.4.3-.6.3-.6h.9zm-1.9-8.1v1.3h-.8c-.3-.1-.4-.4-.4-.7 0-.4.3-.6.3-.6h.9zm-2 2.6v1.3h-.8c-.3-.1-.4-.4-.4-.7 0-.4.3-.6.3-.6h.9zm1.1 2.6v1.3h-.8c-.3-.1-.4-.4-.4-.7 0-.4.3-.6.3-.6h.9z"/><path class="st7" d="M90.9 41.2c-.6-.6-1.2-1.3-1.8-1.9-.2-.1-.4-.3-.7-.4-.6-.3-1.2-.2-1.5-.2h-7.6c0 .2 0 .7.4 1.2.4.6.9.8 1.1.9h3.3c.1 0 .2.1.3.1.1.1.1.3.1.3h6.4"/><path class="st5" d="M80.5 39.3c-.4-.1-.7-.5-.7-.6h1.1c.8 0 .9 0 .9.1.1.1-.6.7-1.3.5"/></g></g><g id="Brown_x5F_high"><g id="dress_1_"><path class="st3" d="M86 26.3h22v10.8H86z"/><path class="st4" d="M85.9 26.3H108v5.5H85.9z"/><path class="st5" d="M84.6 26.5h1.3v10.1h-1.3z"/></g><g id="hand_1_"><path class="st6" d="M84.6 27.8H67.4c-.5-.1-1 .2-1.1.7-.2.5 0 1 .5 1.3h7.8c.3 0 .5.2.4.4 0 .2-.2.3-.3.3h-9.9c-.4.1-.7.5-.7.9 0 .5.3.9.7 1h9.6c.3 0 .5.2.5.4 0 .1-.1.3-.1.3H66c-.4.2-.6.5-.6.9s.2.8.6 1h8.5s.3 0 .3.2c.1.2 0 .4-.2.6h-5.7c-.6.2-.9.6-.9 1.1 0 .6.6.9.6 1h13.5c.2-.1.6-.3 1-.7.4-.5.5-1 .5-1.2h1v-8.2z"/><path class="st5" d="M74.1 25.9c-.4-.1-.7-.5-.7-.6h1.1c.8 0 .9 0 .9.1.1.1-.6.7-1.3.5"/></g><g id="Notebook"><path d="M77.8 37.8c0 1.1-.9 2-2 2H62.3c-1.1 0-2-.9-2-2V18.6c0-1.1.9-2 2-2h13.5c1.1 0 2 .9 2 2v19.2z" fill="#4c495e"/><path class="st5" d="M61.5 17.8v18.3l2.4 2.3h12.6V17.8z"/><path class="st9" d="M65.9 21.2h9v1.5h-9z"/><path class="st10" d="M63.8 21.2h1.5v1.5h-1.5z"/><path class="st9" d="M66 24.1h9v1.5h-9zm-.1 3h9v1.5h-9zm.1 3.1h9v1.5h-9zm0 2.9h9v1.5h-9z"/><path class="st10" d="M63.8 33.1h1.5v1.5h-1.5zm0-2.9h1.5v1.5h-1.5zm0-3.1h1.5v1.5h-1.5zm0-3h1.5v1.5h-1.5z"/><path class="st11" d="M66.1 20.7l-.3-.3h-.2l-1.4 1.4-.3-.3h-.2l-.3.3v.2l.4.4.3.3h.2l1.8-1.8v-.2c0 .1 0 0 0 0z"/><path d="M72.9 19c-.1-.9-.7-1.6-1.5-1.6h-4.6c-.8 0-1.4.7-1.5 1.6h7.6z" fill="#a2a3a6"/><path class="st13" d="M72.9 18.6c-.1-.9-.7-1.6-1.5-1.6h-4.6c-.8 0-1.4.7-1.5 1.6h7.6z"/><path class="st13" d="M71 17.4c0-.2.1-.3.1-.5 0-1.1-.9-2-2-2s-2 .9-2 2c0 .2 0 .4.1.5H71zm-1.9-1.9c.4 0 .7.3.7.7 0 .4-.3.7-.7.7-.4 0-.7-.3-.7-.7 0-.4.3-.7.7-.7z"/></g><g id="Pencil"><path transform="matrix(.09215 -.9957 .9957 .09215 42.847 100.108)" class="st14" d="M67.6 26h17.5v1.2H67.6z"/><path d="M77.4 16.1c.2 0 .4.2.4.5l-.1.7-1.2-.1.1-.7c0-.2.2-.4.5-.4h.3z" fill="#f59fc6"/><path d="M77.8 16.6c0-.2-.2-.5-.4-.5h-.1c.2 0 .2.3.2.3l-.1.9h.4v-.7z" fill="#d388b4"/><path transform="rotate(-84.708 77.13 17.85) scale(.99996)" fill="#b3b3b3" d="M76.6 17.3h1v1.2h-1z"/><path transform="matrix(.09215 -.9957 .9957 .09215 42.144 99.978)" fill="#f9b041" d="M67.3 26.7h17.2v.4H67.3z"/><path transform="matrix(.09215 -.9957 .9957 .09215 42.462 100.399)" class="st14" d="M67.7 26.7h17.2v.4H67.7z"/><path transform="matrix(.09215 -.9957 .9957 .09215 42.78 100.82)" fill="#d18a30" d="M68.1 26.8h17.2v.4H68.1z"/><path fill="#eedec4" d="M74.9 35.4l1.2.1"/><path d="M75.3 35.4h-.1v.1c0 1.1.1 1.9.1 1.9 0 .1.1.1.1 0 0 0 .3-.8.4-1.9v-.1h-.1c0-.1-.1-.2-.2-.2-.1.1-.2.1-.2.2z" fill="#edddc4"/><path d="M75.7 35.5l-.3 1.6h.1c.1-.4.3-.8.5-1.5v-.1c0-.1-.1-.2-.2-.2 0 0-.1.1-.1.2z" fill="#dcc7aa"/><path d="M74.9 35.4s0 .1 0 0c0 1.2.2 1.7.2 1.7s.1-.1.2-.1v-1.6c0-.1-.1-.2-.2-.2s-.2.1-.2.2z" fill="#fbeedb"/><path class="st24" d="M75.1 37.1c.1.3.1.5.1.5 0 .1.1.1.1.1s.1 0 .1-.1c0 0 .1-.2.2-.5h-.1s-.1.1-.1 0c0 0-.1 0-.1.1-.1-.2-.2-.1-.2-.1z"/><path class="st24" d="M75.3 37.7l.1-.6s-.1 0-.1.1v.5z"/><path d="M75.2 37s-.1 0-.1.1c.1.3.1.5.1.5 0 .1.1.1.1.1l-.1-.7c.1.1.1.1 0 0z" fill="#666"/><path class="st11" d="M75.4 37.1l-.1.6s.1 0 .1-.1c0 0 .1-.2.2-.5h-.1s0 .1-.1 0z"/><path opacity=".4" fill="#999" d="M77.3 18.4l-.1-1.1.6.1-.1 1z"/><path class="st27" d="M76.6 17.6l1.1.1"/><path class="st28" d="M76.5 18.3l1.2.1"/><path class="st27" d="M76.5 18l1.2.1"/><path class="st28" d="M76.6 17.3l1.2.1"/></g><path class="st7" d="M84.5 27.8c-.6-.6-1.2-1.3-1.8-1.9-.2-.1-.4-.3-.7-.4-.6-.3-1.2-.2-1.5-.2h-7.6c0 .2 0 .7.4 1.2.4.6.9.8 1.1.9h3.4c.1 0 .2.1.3.1.1.1.1.3.1.3h6.3"/></g></g><g id="Grey"><g id="Grey_x5F_high"><g id="dress_2_"><path class="st29" d="M0 26.3h16v10.8H0z"/><path class="st30" d="M0 26.3h16.1v5.5H0z"/><path class="st5" d="M16.1 26.5h1.3v10.1h-1.3z"/></g><g id="hand_2_"><path class="st6" d="M17.4 27.8h17.3c.5-.1 1 .2 1.1.7.2.5 0 1-.5 1.3h-7.8c-.3 0-.5.2-.4.4 0 .2.2.3.3.3h9.9c.4.1.7.5.7.9 0 .5-.3.9-.7 1h-9.6c-.3 0-.5.2-.5.4 0 .1.1.3.1.3h8.8c.4.2.6.5.6.9s-.2.8-.6 1h-8.5s-.3 0-.3.2c-.1.2 0 .4.2.6h5.7c.5.2.8.7.8 1.2 0 .6-.6.9-.6 1H19.9c-.2-.1-.6-.3-1-.7-.4-.5-.5-1-.5-1.2h-1v-8.3z"/><path class="st7" d="M17.5 27.8c.6-.6 1.2-1.3 1.8-1.9.2-.1.4-.3.7-.4.6-.3 1.2-.2 1.5-.2h7.6c0 .2 0 .7-.4 1.2-.4.6-.9.8-1.1.9h-3.4c-.1 0-.2.1-.3.1-.1.1-.1.3-.1.3h-6.3"/><path class="st5" d="M27.9 25.9c.4-.1.7-.5.7-.6h-1.1c-.8 0-.9 0-.9.1-.1.1.6.7 1.3.5"/></g></g><g id="Package"><path fill="#de8f36" d="M28 26.3h26.4v26.3H28z"/><path fill="#ea9847" d="M54.4 26.3H28l-6.3-6.6h26.5z"/><path fill="#9b7559" d="M51.3 23l-26.4.1-1.1-1.2 26.3-.1z"/><path fill="#b87a2c" d="M21.7 19.7l6.3 6.6v26.3l-6.3-6.1z"/><path d="M24.9 23.1V26l-.1-.2h-.1l-.1-.2h-.1l-.1-.2h-.1l-.1-.2-.1.1-.1-.2h-.1V25l-.1.1v-3.2c.3.4.7.8 1.1 1.2z" fill="#966942"/><path class="st5" d="M44.2 43.3h9.4V50h-9.4z"/><path d="M44.6 49h3.7v.4h-3.7zm0-.7H48v.4h-3.4zm.3-2.9h3.4v.4h-3.4zm0-.7h6v.4h-6zm.1-.7h7.8v.4H45zm4 2.5h3.4v.2H49zm.1.6h2v.2h-2z" fill="#6d6e70"/></g><g id="Grey_x5F_low"><g id="dress_3_"><path class="st29" d="M0 40h22.4v10.8H0z"/><path class="st30" d="M0 40h22.4v5.5H0z"/><path class="st5" d="M22.5 40.3h.9v10.1h-.9z"/></g><g id="hand_3_"><path class="st6" d="M23.4 41.4h17.3c.5-.1 1 .2 1.1.7.2.5 0 1-.5 1.3h-7.8c-.3 0-.5.2-.4.4 0 .2.2.3.3.3h9.9c.4.1.7.5.7.9 0 .5-.3.9-.7 1h-9.6c-.3 0-.5.2-.5.4 0 .1.1.3.1.3h8.8c.4.2.6.5.6.9s-.2.8-.6 1h-8.5s-.3 0-.3.2c-.1.2 0 .4.2.6h5.7c.5.2.8.7.8 1.2 0 .6-.6.9-.6 1H25.9c-.2-.1-.6-.3-1-.7-.4-.5-.5-1-.5-1.2h-1v-8.3z"/><path class="st5" d="M38.4 49.8v1.3h.8c.3-.1.4-.4.4-.7 0-.4-.3-.6-.3-.6h-.9zm1.9-8v1.3h.7c.3-.1.4-.4.4-.7 0-.4-.3-.6-.3-.6h-.8zm2 2.6v1.3h.7c.3-.1.4-.4.4-.7 0-.4-.3-.6-.3-.6h-.8zM41.1 47v1.3h.8c.3-.1.4-.4.4-.7 0-.4-.3-.6-.3-.6h-.9z"/><path class="st7" d="M23.5 41.4c.6-.6 1.2-1.3 1.8-1.9.2-.1.4-.3.7-.4.6-.3 1.2-.2 1.5-.2h7.6c0 .2 0 .7-.4 1.2-.4.6-.9.8-1.1.9h-3.4c-.1 0-.2 0-.2.1-.1.1-.1.3-.1.3h-6.4"/><path class="st5" d="M33.9 39.5c.4-.1.7-.5.7-.6h-1.1c-.8 0-.9 0-.9.1-.1.1.6.7 1.3.5"/></g></g></g></svg>