<svg version="1.1" id="Layer_1" xmlns="http://www.w3.org/2000/svg" x="0" y="0" viewBox="147.4 384.7 340.5 168.2" xml:space="preserve"><style>.st1{fill:#4e3d39}.st2{fill:#664e49}.st3{fill:#4e3c38}.st7{fill:#b6b590}.st8{fill:#855f70}.st12{fill:#cccba1}.st14{fill:#f47a3b}.st15{fill:#d55f3c}.st16{fill:#694c5b}.st21{fill:#363837}.st22{fill:#e4e3b4}.st27{fill:#e36f32}.st35{fill:#a5a389}</style><g id="Truck"><g id="wheel_on_the_back"><ellipse class="st1" cx="372.5" cy="532.5" rx="23" ry="20.8"/><circle class="st2" cx="375" cy="532.2" r="20.6"/><circle class="st3" cx="375" cy="532.2" r="12.9"/></g><g id="wheel_on_the_back_1_"><ellipse class="st1" cx="209.2" cy="532.4" rx="23" ry="20.8"/><circle class="st2" cx="211.6" cy="532.2" r="20.6"/><circle class="st3" cx="211.6" cy="532.2" r="12.9"/></g><g id="rightside"><path fill="#ede7b3" d="M217.4 384.7h155.1v137.8H217.4z"/><path fill="#d3d0ab" d="M217.4 415.4h83l-26 41.2h98.1v15.5H240.6l27.8-44.7-51 .2z"/><path class="st7" d="M217.4 391.8h155.1v4H217.4zm0 117.8h155.1v4H217.4z"/><path class="st8" d="M217.4 522.4h155.1v13.2H217.4z"/><path class="st7" d="M258.5 461.1v6.7H257v-6.7h1.5zm2.6 1.3h-1.8v-1.3h5.2v1.3h-1.8v5.5h-1.5v-5.5h-.1zm5.1 3.7l-.5 1.7h-1.6l2.1-6.7h2l2.1 6.7h-1.6l-.5-1.7h-2zm1.7-1.1l-.4-1.4c-.1-.4-.2-.9-.3-1.3-.1.4-.2.9-.3 1.3l-.4 1.4h1.4zm3.3-3.9h1.5v5.5h2.7v1.3h-4.2v-6.8zm10.9 3.3c0 2.2-1.3 3.5-3.3 3.5s-3.2-1.5-3.2-3.4c0-2 1.3-3.5 3.3-3.5s3.2 1.5 3.2 3.4zm-4.9.1c0 1.3.6 2.2 1.6 2.2s1.6-1 1.6-2.3c0-1.2-.6-2.2-1.6-2.2s-1.6 1-1.6 2.3zm11.9.5h-2.5v1.6h2.8v1.2h-4.3v-6.7h4.2v1.2h-2.6v1.4h2.5v1.3h-.1zm4.9 2.8l-.6-1.2c-.3-.5-.4-.8-.6-1.2-.1.4-.3.7-.5 1.2l-.6 1.2H290l1.9-3.4-1.9-3.3h1.7l.6 1.2c.2.4.4.7.5 1.1.2-.4.3-.7.5-1.1l.6-1.2h1.7l-1.9 3.3 2 3.4H294zm2.5-6.6c.5-.1 1.1-.1 2.1-.1.9 0 1.6.2 2.1.5.4.3.7.9.7 1.6s-.2 1.2-.6 1.6c-.5.5-1.3.7-2.2.7h-.5v2.4h-1.5v-6.7h-.1zm1.6 3h.5c.8 0 1.3-.4 1.3-1.1 0-.6-.4-1-1.2-1-.3 0-.5 0-.6.1v2zm4.3-3c.5-.1 1.2-.1 2-.1 1 0 1.7.1 2.2.5.4.3.6.8.6 1.4 0 .9-.6 1.4-1.2 1.7.5.2.7.6.9 1.3.2.8.4 1.6.5 1.9h-1.6c-.1-.2-.3-.7-.5-1.6-.2-.8-.5-1.1-1.1-1.1h-.5v2.6h-1.5v-6.6h.2zm1.5 2.9h.6c.8 0 1.2-.4 1.2-1s-.4-.9-1.1-.9h-.7v1.9zm8.4.9h-2.5v1.6h2.8v1.2h-4.3v-6.7h4.2v1.2h-2.6v1.4h2.5v1.3h-.1zm1.4 1.3c.4.2 1 .4 1.7.4s1.1-.3 1.1-.7c0-.4-.3-.7-1.1-.9-1.1-.4-1.8-1-1.8-2 0-1.1 1-2 2.5-2 .8 0 1.3.2 1.7.3l-.3 1.2c-.3-.1-.7-.3-1.4-.3s-1 .3-1 .6c0 .4.4.6 1.3.9 1.2.4 1.7 1.1 1.7 2 0 1.1-.9 2.1-2.7 2.1-.8 0-1.5-.2-1.9-.4l.2-1.2zm5.4 0c.4.2 1 .4 1.7.4s1.1-.3 1.1-.7c0-.4-.3-.7-1.1-.9-1.1-.4-1.8-1-1.8-2 0-1.1 1-2 2.5-2 .8 0 1.3.2 1.7.3l-.3 1.2c-.3-.1-.8-.3-1.4-.3-.7 0-1 .3-1 .6 0 .4.4.6 1.2.9 1.2.4 1.7 1.1 1.7 2 0 1.1-.9 2.1-2.7 2.1-.8 0-1.5-.2-1.9-.4l.3-1.2zm12.3 1.3c-.3.1-.9.3-1.7.3-2.3 0-3.5-1.4-3.5-3.4 0-2.3 1.6-3.6 3.7-3.6.8 0 1.4.2 1.7.3l-.3 1.2c-.3-.1-.7-.3-1.3-.3-1.2 0-2.1.7-2.1 2.2 0 1.3.8 2.2 2.2 2.2.5 0 1-.1 1.3-.2v1.3zm6.9-3.2c0 2.2-1.3 3.5-3.3 3.5s-3.2-1.5-3.2-3.4c0-2 1.3-3.5 3.3-3.5 2 0 3.2 1.5 3.2 3.4zm-4.9.1c0 1.3.6 2.2 1.6 2.2s1.6-1 1.6-2.3c0-1.2-.6-2.2-1.6-2.2s-1.6 1-1.6 2.3zm7.4-3.4v3.9c0 1.2.4 1.7 1.2 1.7.8 0 1.2-.6 1.2-1.7v-3.9h1.5v3.8c0 2.1-1 3.1-2.8 3.1-1.7 0-2.7-.9-2.7-3.1v-3.8h1.6zm5.3.1c.5-.1 1.2-.1 2-.1 1 0 1.7.1 2.2.5.4.3.6.8.6 1.4 0 .9-.6 1.4-1.2 1.7.5.2.7.6.9 1.3.2.8.4 1.6.5 1.9h-1.6c-.1-.2-.3-.7-.5-1.6-.2-.8-.5-1.1-1.1-1.1h-.5v2.6h-1.5v-6.6h.2zm1.5 2.9h.6c.8 0 1.2-.4 1.2-1s-.4-.9-1.1-.9h-.7v1.9zm5.9-3v6.7H352v-6.7h1.5zm5.4 3.9h-2.5v1.6h2.8v1.2h-4.3v-6.7h4.2v1.2h-2.6v1.4h2.5v1.3h-.1zm1.3-3.8c.5-.1 1.2-.1 2-.1 1 0 1.7.1 2.2.5.4.3.6.8.6 1.4 0 .9-.6 1.4-1.2 1.7.5.2.7.6.9 1.3.2.8.4 1.6.5 1.9h-1.6c-.1-.2-.3-.7-.5-1.6-.2-.8-.5-1.1-1.1-1.1h-.5v2.6H360v-6.6h.2zm1.5 2.9h.6c.8 0 1.2-.4 1.2-1s-.4-.9-1.1-.9h-.7v1.9z"/></g><g id="back"><path class="st12" d="M151.7 384.7h65.7v137.8h-65.7z"/><path fill="#b4b38e" d="M160.5 397.9h5.5v118.5h-5.5z"/><path class="st14" d="M217.4 502.9h13.7v10.7h-13.7z"/><path class="st15" d="M217.4 513.6h-64.5c-2.4 0-4.3-1.9-4.3-4.3v-3c0-1.9 1.6-3.5 3.5-3.5h65.3v10.8z"/><path class="st15" d="M153.2 502.8h65.3c1.9 0 3.5 1.6 3.5 3.5v3c0 2.4-1.9 4.3-4.3 4.3h-64.5v-10.8z"/><path class="st16" d="M166 397.9h43.2v118.5H166z"/><path fill="#5c4250" d="M166.5 398.4l42.7 118H166z"/><path class="st16" d="M153.4 522.3h64v13.3h-63.9c-3.4 0-6.1-2.7-6.1-6.1v-1.2c0-3.2 2.7-6 6-6z"/></g><g id="wheel_x2B_hole_1_"><path id="hole_1_" class="st21" d="M299.2 535.6c.1-.7.1-1.6.1-2.3 0-16.3-12.7-29.4-28.4-29.4s-28.4 13.2-28.4 29.4c0 .8 0 1.6.1 2.3h56.6z"/><g id="Wheel_1_"><ellipse class="st1" cx="271.3" cy="532" rx="23" ry="20.9"/><circle class="st2" cx="273.7" cy="531.6" r="20.6"/><circle class="st22" cx="273.7" cy="531.6" r="12.9"/><circle class="st12" cx="273.7" cy="531.6" r="6.9"/></g></g><g id="fiancata"><path d="M483.4 522.4h-101v-40h97.9c1.7 0 3.1 1.4 3.1 3.1v36.9z" fill="#e36f32" stroke="#e36f32" stroke-miterlimit="10"/><path class="st8" d="M481.8 535.1h-99.4v-13.2h99.4c3.4 0 6.1 2.7 6.1 6.1v1.1c0 3.3-2.8 6-6.1 6z"/><path class="st16" d="M382.4 535.1h-10l.1-13.3h9.9z"/><path class="st14" d="M380.6 482.4H482l-2.9-5.1c-2-3.6-5.5-6.1-9.6-7l-17.9-3.9-12.2-37.8c-.4-1.3-1.2-2.5-2.1-3.5l-1.8-2.2c-2.6-3.2-6.6-5-10.7-5h-44.1l-.1 64.5z"/><path fill="#e06442" d="M372.5 417.9h9.9v103.9h-9.9z"/><path d="M482.6 517.1h-12.1v-9.8h12.1c2.2 0 4 1.8 4 4v1.8c0 2.2-1.8 4-4 4z" fill="#ffae3e"/><path d="M472.5 501.1H483v1.6h-10.5zm0-5.4H483v1.6h-10.5zm0-5.5H483v1.6h-10.5z" fill="#a3453c" id="lights"/><path class="st27" d="M386.7 422.9h15.5v42.7h-15.5z"/><g id="window"><path d="M412.4 421.9h12c4.6 0 8.7 2.9 10.2 7.2l12.7 36.4h-34.8c-2.9 0-5.2-2.3-5.2-5.2V427c-.1-2.8 2.2-5.1 5.1-5.1z" fill="#b7dfd4"/><path d="M416.5 465.6h-5.8c-1.9 0-3.5-1.6-3.5-3.5V456h9.3v9.6z" fill="#a6cac1"/><path d="M410 462.5l23.4-34.5c.1-.2.4-.5 1 .9l12.7 36.4c.1.1-.1.3-.2.3h-35.5c-.6 0-1.2-.4-1.4-1l-.2-.6c-.2-.5-.1-1.1.2-1.5z" fill="#87ada4"/><path d="M443.8 455.9l-9.4-27.1c-.6-1.4-.9-1-1-.9l-19 28h29.4z" fill="#a8d7cb"/></g><g id="wheel_x2B_hole"><path id="hole" class="st21" d="M455.1 535.1c.1-.7.1-1.5.1-2.2 0-15.7-12.7-28.4-28.4-28.4s-28.4 12.7-28.4 28.4c0 .8 0 1.5.1 2.2h56.6z"/><g id="Wheel"><ellipse class="st1" cx="427.2" cy="532.5" rx="23" ry="20.8"/><circle class="st2" cx="429.6" cy="532.2" r="20.6"/><circle class="st22" cx="429.6" cy="532.2" r="12.9"/><circle class="st12" cx="429.6" cy="532.2" r="6.9"/></g></g><path d="M415.7 417.9h-43.2v-11.8h30.3c7.2.1 12.9 4.7 12.9 11.8z" fill="#c2542e"/><g id="mirror"><path class="st27" d="M437.1 423.9h15.2c1.8 0 3.4 1.2 4 2.9l3.3 10.7c.4 1.4-.6 3.5-2.1 3.5h-5.6l-4.3-14-8.1-.1-2.4-3z"/><path fill="#6d4452" d="M447 427h1.7l4.5 13.7h-1.3z"/></g></g></g><path fill="#b5b38e" d="M160.5 397.9h48.7v118.5h-48.7z"/><path class="st35" d="M209.8 397.2h-48.6l-.7.7h48.6z"/><path class="st35" d="M209.7 397.2l-.6.7v118.5l.6-.7z"/></svg>