<svg version="1.1" id="Layer_1" xmlns="http://www.w3.org/2000/svg" x="0" y="0" viewBox="0 0 430 168.6" xml:space="preserve"><style>.st1{fill:#b87a2c}.st2{fill:#de8f36}.st3{fill:#966942}.st4{opacity:.8;fill:#c98631}.st5{fill:#ad885d}.st6{fill:#4e3d39}.st7{fill:#664e49}.st8{fill:#4e3c38}.st12{fill:#b6b590}.st13{fill:#855f70}.st14{fill:#cccba1}.st17{fill:#f47a3b}.st18{fill:#694c5b}.st23{fill:#363837}.st24{fill:#e4e3b4}.st29{fill:#e36f32}</style><g id="boxes_in_the_left"><path class="st1" d="M9.5 143.4h13.2v24.9H9.5z"/><path class="st2" d="M20.5 143.4h17.4v24.9H20.5z"/><path class="st3" d="M16.6 143.4v4.5l-.3-.2H16l-.2-.2-.3.1-.2-.2H15l-.3-.2h-.2l-.2-.2-.3.1-.3-.3-.3.1v-3.5z"/><path class="st1" d="M31.9 126.9h13.3v41.4H31.9z"/><path class="st2" d="M43.9 126.9h34.3v41.4H43.9z"/><path class="st4" d="M43.9 160.4l34.2-24.5v32.4H43.9z"/><path class="st3" d="M39.5 126.9v5.4l-.3-.2H39l-.3-.2h-.2l-.3-.2h-.3l-.2-.3-.2.1-.3-.3-.2.1-.3-.3-.3.1v-4.2z"/><path class="st5" d="M59.4 126.9v4l.3-.2.3.1.2-.2h.3l.2-.2h.3l.3-.1h.2l.2-.2.3.1.3-.2h.3v-3.1z"/></g><g id="Truck"><g id="wheel_on_the_back"><ellipse class="st6" cx="308.1" cy="147.8" rx="23" ry="20.8"/><circle class="st7" cx="310.6" cy="147.5" r="20.6"/><circle class="st8" cx="310.6" cy="147.5" r="12.9"/></g><g id="wheel_on_the_back_1_"><ellipse class="st6" cx="144.8" cy="147.7" rx="23" ry="20.8"/><circle class="st7" cx="147.3" cy="147.5" r="20.6"/><circle class="st8" cx="147.3" cy="147.5" r="12.9"/></g><g id="rightside"><path fill="#ede7b3" d="M153 0h155.1v137.8H153z"/><path fill="#d3d0ab" d="M153 30.7h83L210 72h98.1v15.5H176.3L204 42.7l-51 .2z"/><path class="st12" d="M153 7.1h155.1v4H153zm0 117.9h155.1v4H153z"/><path class="st13" d="M153 137.8h155.1V151H153z"/><path class="st12" d="M194.2 76.4v6.7h-1.5v-6.7h1.5zm2.6 1.3H195v-1.3h5.2v1.3h-1.8v5.5h-1.5v-5.5zm5 3.7l-.5 1.7h-1.6l2.1-6.7h2l2.1 6.7h-1.6l-.5-1.7h-2zm1.7-1.1l-.4-1.4c-.1-.4-.2-.9-.3-1.3-.1.4-.2.9-.3 1.3l-.4 1.4h1.4zm3.3-3.9h1.5v5.5h2.7v1.3h-4.2v-6.8zm10.9 3.3c0 2.2-1.3 3.5-3.3 3.5-2 0-3.2-1.5-3.2-3.4 0-2 1.3-3.5 3.3-3.5 2.1 0 3.2 1.6 3.2 3.4zm-4.9.1c0 1.3.6 2.2 1.6 2.2s1.6-1 1.6-2.3c0-1.2-.6-2.2-1.6-2.2s-1.6 1-1.6 2.3zm11.9.5h-2.5v1.6h2.8v1.2h-4.3v-6.7h4.2v1.2h-2.6V79h2.5v1.3zm4.9 2.9L229 82c-.3-.5-.4-.8-.6-1.2-.1.4-.3.7-.5 1.2l-.6 1.2h-1.7l1.9-3.4-1.9-3.3h1.7l.6 1.2c.2.4.4.7.5 1.1.2-.4.3-.7.5-1.1l.6-1.2h1.7l-1.9 3.3 2 3.4h-1.7zm2.6-6.7c.5-.1 1.1-.1 2.1-.1.9 0 1.6.2 2.1.5.4.3.7.9.7 1.6s-.2 1.2-.6 1.6c-.5.5-1.3.7-2.2.7h-.5v2.4h-1.5v-6.7zm1.5 3.1h.5c.8 0 1.3-.4 1.3-1.1 0-.6-.4-1-1.2-1-.3 0-.5 0-.6.1v2zm4.3-3.1c.5-.1 1.2-.1 2-.1 1 0 1.7.1 2.2.5.4.3.6.8.6 1.4 0 .9-.6 1.4-1.2 1.7.5.2.7.6.9 1.3.2.8.4 1.6.5 1.9h-1.6c-.1-.2-.3-.7-.5-1.6-.2-.8-.5-1.1-1.1-1.1h-.5v2.6H238v-6.6zm1.5 2.9h.6c.8 0 1.2-.4 1.2-1s-.4-.9-1.1-.9h-.7v1.9zm8.4.9h-2.5v1.6h2.8v1.2h-4.3v-6.7h4.2v1.2h-2.6V79h2.5v1.3zm1.4 1.3c.4.2 1 .4 1.7.4s1.1-.3 1.1-.7c0-.4-.3-.7-1.1-.9-1.1-.4-1.8-1-1.8-2 0-1.1 1-2 2.5-2 .8 0 1.3.2 1.7.3l-.3 1.2c-.3-.1-.7-.3-1.4-.3s-1 .3-1 .6c0 .4.4.6 1.3.9 1.2.4 1.7 1.1 1.7 2 0 1.1-.9 2.1-2.7 2.1-.8 0-1.5-.2-1.9-.4l.2-1.2zm5.4 0c.4.2 1 .4 1.7.4s1.1-.3 1.1-.7c0-.4-.3-.7-1.1-.9-1.1-.4-1.8-1-1.8-2 0-1.1 1-2 2.5-2 .8 0 1.3.2 1.7.3l-.3 1.2c-.3-.1-.8-.3-1.4-.3-.7 0-1 .3-1 .6 0 .4.4.6 1.2.9 1.2.4 1.7 1.1 1.7 2 0 1.1-.9 2.1-2.7 2.1-.8 0-1.5-.2-1.9-.4l.3-1.2zM267 83c-.3.1-.9.3-1.7.3-2.3 0-3.5-1.4-3.5-3.4 0-2.3 1.6-3.6 3.7-3.6.8 0 1.4.2 1.7.3l-.3 1.2c-.3-.1-.7-.3-1.3-.3-1.2 0-2.1.7-2.1 2.2 0 1.3.8 2.2 2.2 2.2.5 0 1-.1 1.3-.2V83zm6.9-3.3c0 2.2-1.3 3.5-3.3 3.5-2 0-3.2-1.5-3.2-3.4 0-2 1.3-3.5 3.3-3.5 2.1 0 3.2 1.6 3.2 3.4zm-4.9.1c0 1.3.6 2.2 1.6 2.2s1.6-1 1.6-2.3c0-1.2-.6-2.2-1.6-2.2s-1.6 1-1.6 2.3zm7.4-3.4v3.9c0 1.2.4 1.7 1.2 1.7.8 0 1.2-.6 1.2-1.7v-3.9h1.5v3.8c0 2.1-1 3.1-2.8 3.1-1.7 0-2.7-.9-2.7-3.1v-3.8h1.6zm5.3.1c.5-.1 1.2-.1 2-.1 1 0 1.7.1 2.2.5.4.3.6.8.6 1.4 0 .9-.6 1.4-1.2 1.7.5.2.7.6.9 1.3.2.8.4 1.6.5 1.9h-1.6c-.1-.2-.3-.7-.5-1.6-.2-.8-.5-1.1-1.1-1.1h-.5v2.6h-1.5v-6.6zm1.5 2.9h.6c.8 0 1.2-.4 1.2-1s-.4-.9-1.1-.9h-.7v1.9zm6-3v6.7h-1.5v-6.7h1.5zm5.3 3.9H292v1.6h2.8v1.2h-4.3v-6.7h4.2v1.2H292V79h2.5v1.3zm1.3-3.8c.5-.1 1.2-.1 2-.1 1 0 1.7.1 2.2.5.4.3.6.8.6 1.4 0 .9-.6 1.4-1.2 1.7.5.2.7.6.9 1.3.2.8.4 1.6.5 1.9h-1.6c-.1-.2-.3-.7-.5-1.6-.2-.8-.5-1.1-1.1-1.1h-.5v2.6h-1.5v-6.6zm1.5 2.9h.6c.8 0 1.2-.4 1.2-1s-.4-.9-1.1-.9h-.7v1.9z"/></g><g id="back"><path class="st14" d="M87.3 0H153v137.8H87.3z"/><path fill="#b4b38e" d="M96.2 13.3h5.5v118.5h-5.5z"/><path d="M153 129H88.5c-2.4 0-4.3-1.9-4.3-4.3v-3c0-1.9 1.6-3.5 3.5-3.5H153V129z" fill="#d55f3c"/><path class="st17" d="M153 118.3h13.7V129H153z"/><path class="st18" d="M101.7 13.3h43.2v118.5h-43.2z"/><path fill="#5c4250" d="M102.2 13.8l42.6 118h-43.1z"/><path class="st18" d="M89.1 137.7h64V151h-64c-3.4 0-6.1-2.7-6.1-6.1v-1.2c0-3.3 2.7-6 6.1-6z"/></g><g id="scivolo"><path fill="#e3e1b2" d="M96.2 132.1h37.9v8.7L97.8 164H51.3"/><path d="M51.3 164h46.5v4.3H51.3zm82.8-19.8l-36.3 24.1v-4.4l36.3-23.8z" fill="#b5b38e"/><path d="M96.9 136.8h35.8v.6H96.9zm-10.5 7h35.8v.6H86.4zm-10.9 7.1h35.8v.6H75.5zm-10.9 7.2h35.8v.6H64.6z" fill="#c2c19a"/></g><g id="wheel_x2B_hole_1_"><path id="hole_1_" class="st23" d="M234.8 149.8c.1-.7.1-1.5.1-2.2 0-15.7-12.7-28.4-28.4-28.4s-28.4 12.7-28.4 28.4c0 .8 0 1.5.1 2.2h56.6z"/><g id="Wheel_1_"><ellipse class="st6" cx="206.9" cy="147.3" rx="23" ry="20.9"/><circle class="st7" cx="209.4" cy="146.9" r="20.6"/><circle class="st24" cx="209.4" cy="146.9" r="12.9"/><circle class="st14" cx="209.4" cy="146.9" r="6.9"/></g></g><g id="fiancata"><path d="M419 137.8H318v-40h97.9c1.7 0 3.1 1.4 3.1 3.1v36.9z" fill="#e36f32" stroke="#e36f32" stroke-miterlimit="10"/><path class="st13" d="M417.4 150.4H318v-13.2h99.4c3.4 0 6.1 2.7 6.1 6.1v1.1c0 3.3-2.7 6-6.1 6z"/><path class="st18" d="M318.1 150.4h-10v-13.2h10z"/><path class="st17" d="M316.3 97.8h101.4l-2.9-5.1c-2-3.6-5.5-6.1-9.6-7l-17.9-3.9L375.1 44c-.4-1.3-1.2-2.5-2.1-3.5l-1.8-2.2c-2.6-3.2-6.6-5-10.7-5h-44.1v64.5z"/><path fill="#e06442" d="M308.1 33.3h9.9v103.9h-9.9z"/><path d="M418.2 132.5h-12.1v-9.8h12.1c2.2 0 4 1.8 4 4v1.8c0 2.2-1.8 4-4 4z" fill="#ffae3e"/><path d="M408.1 116.4h10.5v1.6h-10.5zm0-5.4h10.5v1.6h-10.5zm0-5.5h10.5v1.6h-10.5z" fill="#a3453c" id="lights"/><path class="st29" d="M322.3 38.2h15.5v42.7h-15.5z"/><g id="window"><path d="M348 37.3h12c4.6 0 8.7 2.9 10.2 7.2l12.7 36.4H348c-2.9 0-5.2-2.3-5.2-5.2V42.4c0-2.8 2.3-5.1 5.2-5.1z" fill="#b7dfd4"/><path d="M352.1 80.9h-5.8c-1.9 0-3.5-1.6-3.5-3.5v-6.1h9.3v9.6z" fill="#a6cac1"/><path d="M345.7 77.8l23.4-34.5c.1-.2.4-.5 1 .9l12.7 36.4c.1.1-.1.3-.2.3H347c-.6 0-1.2-.4-1.4-1l-.2-.6c-.1-.5-.1-1.1.3-1.5z" fill="#87ada4"/><path d="M379.5 71.3l-9.4-27.1c-.6-1.4-.9-1-1-.9l-19 28h29.4z" fill="#a8d7cb"/></g><g id="wheel_x2B_hole"><path id="hole" class="st23" d="M390.7 150.4c.1-.7.1-1.5.1-2.2 0-15.7-12.7-28.4-28.4-28.4S334 132.5 334 148.2c0 .8 0 1.5.1 2.2h56.6z"/><g id="Wheel"><ellipse class="st6" cx="362.8" cy="147.8" rx="23" ry="20.8"/><circle class="st7" cx="365.3" cy="147.5" r="20.6"/><circle class="st24" cx="365.3" cy="147.5" r="12.9"/><circle class="st14" cx="365.3" cy="147.5" r="6.9"/></g></g><path d="M351.3 33.3h-43.2V21.5h30.3c7.2 0 12.9 4.6 12.9 11.8z" fill="#c2542e"/><g id="mirror"><path class="st29" d="M372.7 39.3h15.2c1.8 0 3.4 1.2 4 2.9l3.3 10.7c.4 1.4-.6 3.5-2.1 3.5h-5.6l-4.3-14-8.1-.1-2.4-3z"/><path fill="#6d4452" d="M382.6 42.3h1.7l4.5 13.7h-1.3z"/></g></g></g><g id="boxes_inside"><path class="st1" d="M118.9 74h17.8v57.3h-17.8z"/><path class="st2" d="M136.6 74h8.4v57.4h-8.4z"/><path class="st3" d="M129.3 74v8.5l-.3-.4h-.2l-.3-.4-.2.1-.3-.4-.3.1-.2-.4-.2.1-.3-.4-.2.1-.3-.4-.3.1V74z"/><path class="st1" d="M108.6 97.1h13.8v34.3h-13.8z"/><path class="st2" d="M122.4 97.1H145v34.3h-22.6z"/><path class="st5" d="M131.8 97.1v5.6l.3-.3.2.1.3-.3.2.1.3-.3.3.1.2-.3.2.1.3-.3.2.1.3-.3.3.1v-4.4z"/><path class="st3" d="M117.1 97.1v4.1l-.3-.2h-.3l-.2-.2-.3.1-.3-.2h-.2l-.3-.2-.2.1-.2-.2h-.3l-.3-.2-.3.1v-3.2z"/><path class="st4" d="M140.7 74h4.3v57.4h-15.8z"/></g><g id="Boxes_on_the_right"><g id="box3"><path class="st1" d="M177.5 104.5h17.3v63.8h-17.3z"/><path class="st2" d="M193.9 104.5h19.6v63.8h-19.6z"/><path class="st4" d="M193.9 151.1h19.6v17.3h-19.6z"/><path class="st5" d="M201.8 104.5v8.5l.3-.4h.3l.2-.4.3.1.2-.4.3.1.2-.4.2.1.3-.4.2.1.3-.4.3.1v-6.6z"/><path class="st3" d="M187.2 104.5v4.1l-.3-.3-.2.1-.2-.2h-.3l-.3-.2-.2.1-.3-.2h-.2l-.2-.2-.3.1-.3-.2-.3.1v-3.2z"/></g><g id="box2"><path class="st1" d="M133.8 128.4h19.3v39.9h-19.3z"/><path class="st2" d="M150.4 128.4h39.9v39.9h-39.9z"/><path class="st4" d="M150.4 168.3l39.9-39.7v39.9z"/><path class="st4" d="M160.3 153.4v5l5.1-5z"/><path class="st3" d="M143.6 128.4v4l-.3-.2-.2.1-.3-.2h-.2l-.3-.2h-.3l-.2-.1h-.2l-.3-.2-.2.1-.3-.2h-.3v-3.1z"/><path class="st5" d="M167.8 128.4v5.6l.3-.3.3.1.2-.3h.3l.3-.2h.2l.3-.3.2.1.2-.2h.3l.3-.3.3.2v-4.4z"/></g><g id="box1"><path class="st1" d="M163 155.4h9v12.9h-9z"/><path class="st2" d="M172 155.4h49.4v12.9H172z"/><path class="st3" d="M168.8 155.4v1.9l-.3-.1h-.2l-.3-.1h-.2l-.3-.1h-.7l-.3-.1h-.2l-.3-.1-.3.1v-1.5z"/></g></g></svg>