<svg version="1.1" id="Layer_1" xmlns="http://www.w3.org/2000/svg" x="0" y="0" viewBox="-7 289 580 263.9" xml:space="preserve"><style>.st1{fill:#b87a2c}.st2{fill:#de8f36}.st3{fill:#966942}.st4{opacity:.8;fill:#c98631;enable-background:new}.st5{fill:#ad885d}.st6{fill:#4e3d39}.st7{fill:#664e49}.st8{fill:#4e3c38}.st12{fill:#b6b590}.st13{fill:#855f70}.st17{fill:#cccba1}.st20{fill:#f47a3b}.st21{fill:#694c5b}.st26{fill:#363837}.st27{fill:#e4e3b4}.st32{fill:#e36f32}.st43{fill:#59b144}.st45{fill:#663c18}</style><g id="boxes_in_the_left"><path class="st1" d="M73.9 528.1h11V553h-11z"/><path class="st2" d="M84.9 528.1h17.4V553H84.9z"/><path class="st3" d="M80.9 528.1v4.5l-.3-.2h-.2l-.3-.2-.2.1-.3-.3-.3.1-.2-.3-.2.1-.3-.2-.2.1-.3-.3-.3.1v-3.5z"/><path class="st1" d="M96.2 511.6h13.3V553H96.2z"/><path class="st2" d="M108.2 511.6h34.3V553h-34.3z"/><path class="st4" d="M108.2 545.1l34.3-24.5v32.3h-34.3z"/><path class="st3" d="M103.9 511.6v5.4l-.3-.3-.3.1-.2-.3-.3.1-.2-.3-.3.1-.3-.3-.2.1-.2-.3-.3.1-.2-.3-.3.1v-4.2z"/><path class="st5" d="M123.8 511.6v4l.3-.2h.3l.2-.2.3.1.2-.2h.3l.2-.2.3.1.2-.2h.2l.3-.2.3.1v-3.1z"/></g><g id="Truck"><g id="wheel_on_the_back"><ellipse class="st6" cx="372.5" cy="532.5" rx="23" ry="20.8"/><circle class="st7" cx="375" cy="532.2" r="20.6"/><circle class="st8" cx="375" cy="532.2" r="12.9"/></g><g id="wheel_on_the_back_1_"><ellipse class="st6" cx="209.2" cy="532.4" rx="23" ry="20.8"/><circle class="st7" cx="211.6" cy="532.2" r="20.6"/><circle class="st8" cx="211.6" cy="532.2" r="12.9"/></g><g id="rightside"><path fill="#ede7b3" d="M217.4 384.7h155.1v137.8H217.4z"/><path fill="#d3d0ab" d="M217.4 415.4h83l-26 41.2h98.1v15.5H240.6l27.8-44.7-51 .2z"/><path class="st12" d="M217.4 391.8h155.1v4H217.4zm0 117.8h155.1v4H217.4z"/><path class="st13" d="M217.4 522.4h155.1v13.2H217.4z"/><path class="st12" d="M258.5 461.1v6.7H257v-6.7h1.5zm2.6 1.3h-1.8v-1.3h5.2v1.3h-1.8v5.5h-1.5v-5.5h-.1zm5.1 3.7l-.5 1.7h-1.6l2.1-6.7h2l2.1 6.7h-1.6l-.5-1.7h-2zm1.7-1.1l-.4-1.4c-.1-.4-.2-.9-.3-1.3-.1.4-.2.9-.3 1.3l-.4 1.4h1.4zm3.3-3.9h1.5v5.5h2.7v1.3h-4.2v-6.8zm10.9 3.3c0 2.2-1.3 3.5-3.3 3.5s-3.2-1.5-3.2-3.4c0-2 1.3-3.5 3.3-3.5s3.2 1.5 3.2 3.4zm-4.9.1c0 1.3.6 2.2 1.6 2.2s1.6-1 1.6-2.3c0-1.2-.6-2.2-1.6-2.2s-1.6 1-1.6 2.3zm11.9.5h-2.5v1.6h2.8v1.2h-4.3v-6.7h4.2v1.2h-2.6v1.4h2.5v1.3h-.1zm4.9 2.8l-.6-1.2c-.3-.5-.4-.8-.6-1.2-.1.4-.3.7-.5 1.2l-.6 1.2H290l1.9-3.4-1.9-3.3h1.7l.6 1.2c.2.4.4.7.5 1.1.2-.4.3-.7.5-1.1l.6-1.2h1.7l-1.9 3.3 2 3.4H294zm2.5-6.6c.5-.1 1.1-.1 2.1-.1.9 0 1.6.2 2.1.5.4.3.7.9.7 1.6s-.2 1.2-.6 1.6c-.5.5-1.3.7-2.2.7h-.5v2.4h-1.5v-6.7h-.1zm1.6 3h.5c.8 0 1.3-.4 1.3-1.1 0-.6-.4-1-1.2-1-.3 0-.5 0-.6.1v2zm4.3-3c.5-.1 1.2-.1 2-.1 1 0 1.7.1 2.2.5.4.3.6.8.6 1.4 0 .9-.6 1.4-1.2 1.7.5.2.7.6.9 1.3.2.8.4 1.6.5 1.9h-1.6c-.1-.2-.3-.7-.5-1.6-.2-.8-.5-1.1-1.1-1.1h-.5v2.6h-1.5v-6.6h.2zm1.5 2.9h.6c.8 0 1.2-.4 1.2-1s-.4-.9-1.1-.9h-.7v1.9zm8.4.9h-2.5v1.6h2.8v1.2h-4.3v-6.7h4.2v1.2h-2.6v1.4h2.5v1.3h-.1zm1.4 1.3c.4.2 1 .4 1.7.4s1.1-.3 1.1-.7-.3-.7-1.1-.9c-1.1-.4-1.8-1-1.8-2 0-1.1 1-2 2.5-2 .8 0 1.3.2 1.7.3l-.3 1.2c-.3-.1-.7-.3-1.4-.3s-1 .3-1 .6c0 .4.4.6 1.3.9 1.2.4 1.7 1.1 1.7 2 0 1.1-.9 2.1-2.7 2.1-.8 0-1.5-.2-1.9-.4l.2-1.2zm5.4 0c.4.2 1 .4 1.7.4s1.1-.3 1.1-.7-.3-.7-1.1-.9c-1.1-.4-1.8-1-1.8-2 0-1.1 1-2 2.5-2 .8 0 1.3.2 1.7.3l-.3 1.2c-.3-.1-.8-.3-1.4-.3-.7 0-1 .3-1 .6 0 .4.4.6 1.2.9 1.2.4 1.7 1.1 1.7 2 0 1.1-.9 2.1-2.7 2.1-.8 0-1.5-.2-1.9-.4l.3-1.2zm12.3 1.3c-.3.1-.9.3-1.7.3-2.3 0-3.5-1.4-3.5-3.4 0-2.3 1.6-3.6 3.7-3.6.8 0 1.4.2 1.7.3l-.3 1.2c-.3-.1-.7-.3-1.3-.3-1.2 0-2.1.7-2.1 2.2 0 1.3.8 2.2 2.2 2.2.5 0 1-.1 1.3-.2v1.3zm6.9-3.2c0 2.2-1.3 3.5-3.3 3.5s-3.2-1.5-3.2-3.4c0-2 1.3-3.5 3.3-3.5 2 0 3.2 1.5 3.2 3.4zm-4.9.1c0 1.3.6 2.2 1.6 2.2s1.6-1 1.6-2.3c0-1.2-.6-2.2-1.6-2.2s-1.6 1-1.6 2.3zm7.4-3.4v3.9c0 1.2.4 1.7 1.2 1.7.8 0 1.2-.6 1.2-1.7v-3.9h1.5v3.8c0 2.1-1 3.1-2.8 3.1-1.7 0-2.7-.9-2.7-3.1v-3.8h1.6zm5.3.1c.5-.1 1.2-.1 2-.1 1 0 1.7.1 2.2.5.4.3.6.8.6 1.4 0 .9-.6 1.4-1.2 1.7.5.2.7.6.9 1.3.2.8.4 1.6.5 1.9h-1.6c-.1-.2-.3-.7-.5-1.6-.2-.8-.5-1.1-1.1-1.1h-.5v2.6h-1.5v-6.6h.2zm1.5 2.9h.6c.8 0 1.2-.4 1.2-1s-.4-.9-1.1-.9h-.7v1.9zm5.9-3v6.7H352v-6.7h1.5zm5.4 3.9h-2.5v1.6h2.8v1.2h-4.3v-6.7h4.2v1.2h-2.6v1.4h2.5v1.3h-.1zm1.3-3.8c.5-.1 1.2-.1 2-.1 1 0 1.7.1 2.2.5.4.3.6.8.6 1.4 0 .9-.6 1.4-1.2 1.7.5.2.7.6.9 1.3.2.8.4 1.6.5 1.9h-1.6c-.1-.2-.3-.7-.5-1.6-.2-.8-.5-1.1-1.1-1.1h-.5v2.6H360v-6.6h.2zm1.5 2.9h.6c.8 0 1.2-.4 1.2-1s-.4-.9-1.1-.9h-.7v1.9z"/></g><g id="back"><path class="st17" d="M151.7 384.7h65.7v137.8h-65.7z"/><path fill="#b4b38e" d="M160.5 397.9h5.5v118.5h-5.5z"/><path d="M217.4 513.6h-64.5c-2.4 0-4.3-1.9-4.3-4.3v-3c0-1.9 1.6-3.5 3.5-3.5h65.3v10.8z" fill="#d55f3c"/><path class="st20" d="M217.4 502.9h13.7v10.7h-13.7z"/><path class="st21" d="M166 397.9h43.2v118.5H166z"/><path fill="#5c4250" d="M166.5 398.4l42.7 118H166z"/><path class="st21" d="M153.4 522.3h64v13.3h-63.9c-3.4 0-6.1-2.7-6.1-6.1v-1.2c0-3.2 2.7-6 6-6z"/></g><g id="scivolo"><path fill="#e3e1b2" d="M160.5 516.8h38v8.6l-36.4 23.3h-46.5"/><path d="M115.6 548.7h46.5v4.3h-46.5zm82.9-19.8l-36.4 24v-4.3l36.4-23.8z" fill="#b5b38e"/><path d="M161.2 521.4H197v.6h-35.8zm-10.5 7.1h35.8v.6h-35.8zm-10.8 7.1h35.8v.6h-35.8zm-10.9 7.1h35.8v.6H129z" fill="#c2c19a"/></g><g id="wheel_x2B_hole_1_"><path id="hole_1_" class="st26" d="M299.2 534.5c.1-.7.1-1.5.1-2.2 0-15.7-12.7-28.4-28.4-28.4s-28.4 12.7-28.4 28.4c0 .8 0 1.5.1 2.2h56.6z"/><g id="Wheel_1_"><ellipse class="st6" cx="271.3" cy="532" rx="23" ry="20.9"/><circle class="st7" cx="273.7" cy="531.6" r="20.6"/><circle class="st27" cx="273.7" cy="531.6" r="12.9"/><circle class="st17" cx="273.7" cy="531.6" r="6.9"/></g></g><g id="fiancata"><path d="M483.4 522.4h-101v-40h97.9c1.7 0 3.1 1.4 3.1 3.1v36.9z" fill="#e36f32" stroke="#e36f32" stroke-miterlimit="10"/><path class="st13" d="M481.8 535.1h-99.4v-13.2h99.4c3.4 0 6.1 2.7 6.1 6.1v1.1c0 3.3-2.8 6-6.1 6z"/><path class="st21" d="M382.4 535.1h-10l.1-13.3h9.9z"/><path class="st20" d="M380.6 482.4H482l-2.9-5.1c-2-3.6-5.5-6.1-9.6-7l-17.9-3.9-12.2-37.8c-.4-1.3-1.2-2.5-2.1-3.5l-1.8-2.2c-2.6-3.2-6.6-5-10.7-5h-44.1l-.1 64.5z"/><path fill="#e06442" d="M372.5 417.9h9.9v103.9h-9.9z"/><path d="M482.6 517.1h-12.1v-9.8h12.1c2.2 0 4 1.8 4 4v1.8c0 2.2-1.8 4-4 4z" fill="#ffae3e"/><path d="M472.5 501.1H483v1.6h-10.5zm0-5.4H483v1.6h-10.5zm0-5.5H483v1.6h-10.5z" fill="#a3453c" id="lights"/><path class="st32" d="M386.7 422.9h15.5v42.7h-15.5z"/><g id="window"><path d="M412.4 421.9h12c4.6 0 8.7 2.9 10.2 7.2l12.7 36.4h-34.8c-2.9 0-5.2-2.3-5.2-5.2V427c-.1-2.8 2.2-5.1 5.1-5.1z" fill="#b7dfd4"/><path d="M416.5 465.6h-5.8c-1.9 0-3.5-1.6-3.5-3.5V456h9.3v9.6z" fill="#a6cac1"/><path d="M410 462.5l23.4-34.5c.1-.2.4-.5 1 .9l12.7 36.4c.1.1-.1.3-.2.3h-35.5c-.6 0-1.2-.4-1.4-1l-.2-.6c-.2-.5-.1-1.1.2-1.5z" fill="#87ada4"/><path d="M443.8 455.9l-9.4-27.1c-.6-1.4-.9-1-1-.9l-19 28h29.4z" fill="#a8d7cb"/></g><g id="wheel_x2B_hole"><path id="hole" class="st26" d="M455.1 535.1c.1-.7.1-1.5.1-2.2 0-15.7-12.7-28.4-28.4-28.4s-28.4 12.7-28.4 28.4c0 .8 0 1.5.1 2.2h56.6z"/><g id="Wheel"><ellipse class="st6" cx="427.2" cy="532.5" rx="23" ry="20.8"/><circle class="st7" cx="429.6" cy="532.2" r="20.6"/><circle class="st27" cx="429.6" cy="532.2" r="12.9"/><circle class="st17" cx="429.6" cy="532.2" r="6.9"/></g></g><path d="M415.7 417.9h-43.2v-11.8h30.3c7.2.1 12.9 4.7 12.9 11.8z" fill="#c2542e"/><g id="mirror"><path class="st32" d="M437.1 423.9h15.2c1.8 0 3.4 1.2 4 2.9l3.3 10.7c.4 1.4-.6 3.5-2.1 3.5h-5.6l-4.3-14-8.1-.1-2.4-3z"/><path fill="#6d4452" d="M447 427h1.7l4.5 13.7h-1.3z"/></g></g></g><g id="boxes_inside"><path class="st1" d="M183.2 458.7H201V516h-17.8z"/><path class="st2" d="M201 458.7h8.4v57.4H201z"/><path class="st3" d="M193.7 458.7v8.5l-.3-.5-.3.1-.2-.4-.3.1-.2-.4-.3.1-.3-.4-.2.1-.2-.4-.3.1-.2-.5-.3.2v-6.6z"/><path class="st1" d="M173 481.8h13.8v34.3H173z"/><path class="st2" d="M186.7 481.8h22.6v34.3h-22.6z"/><path class="st5" d="M196.1 481.8v5.6l.3-.3.3.1.2-.3.3.1.2-.3h.3l.3-.2.2.1.2-.3.3.1.3-.3.3.1v-4.4z"/><path class="st3" d="M181.4 481.8v4.1l-.3-.3-.2.1-.3-.2h-.2l-.3-.2-.3.1-.2-.2h-.2l-.3-.2-.2.1-.3-.2-.3.1v-3.2z"/><path class="st4" d="M205.1 458.7h4.3v57.4h-15.9z"/></g><g id="Boxes_on_the_right"><g id="box3"><path class="st1" d="M241.9 489.2h17.3V553h-17.3z"/><path class="st2" d="M258.2 489.2h19.6V553h-19.6z"/><path class="st4" d="M258.2 535.8h19.6v17.3h-19.6z"/><path class="st5" d="M266.2 489.2v8.5l.3-.5.2.1.3-.4.2.1.3-.4.3.1.2-.4.2.1.3-.4.2.1.3-.5.3.2v-6.6z"/><path class="st3" d="M251.6 489.2v4l-.3-.2-.2.1-.3-.2h-.2l-.3-.2-.3.1-.2-.2h-.2l-.3-.2-.2.1-.3-.2h-.3v-3.1z"/></g><g id="box2"><path class="st1" d="M198.1 513.1h16.6V553h-16.6z"/><path class="st2" d="M214.7 513.1h39.9V553h-39.9z"/><path class="st4" d="M214.7 552.9l39.9-39.6v39.9z"/><path class="st4" d="M224.7 538.1v4.9l5-5z"/><path class="st3" d="M208 513.1v4l-.3-.2h-.3l-.2-.2-.3.1-.2-.2h-.3l-.2-.2-.3.1-.2-.2h-.2l-.3-.2-.3.1v-3.1z"/><path class="st5" d="M232.2 513.1v5.6l.3-.3h.3l.2-.2h.3l.2-.2h.3l.2-.3.3.1.2-.3.2.1.3-.3.3.1v-4.3z"/></g><g id="box1"><path class="st1" d="M227.4 540.1h9V553h-9z"/><path class="st2" d="M236.4 540.1h49.4V553h-49.4z"/><path class="st3" d="M233.2 540.1v1.8l-.3-.1-.3.1-.2-.1h-.3l-.2-.1h-.3l-.3-.1-.2.1-.2-.1h-.3l-.2-.1h-.3v-1.4z"/></g></g><path d="M368.5 346.9c0-.7-.1-3.9 2.3-6.6 2.8-3.1 6.6-3.1 7.1-3.1-2.1-4.6-1.4-9.9 1.7-13.7 4.4-5.4 11.3-4.6 11.7-4.6.1-7.4 5-14 12-16.3 7.1-2.3 15 .2 19.4 6.3 2.5-5.7 8.7-8.5 14.3-6.9 4.9 1.5 8.4 6.3 8.3 11.7l5.1 6c1.5-.6 4.9-1.8 9.1-1.1 5.7.8 9.2 4.3 10.3 5.4 3-6.4 9.5-10.4 16.3-10 7.6.4 14.1 6.1 15.7 13.9 1.3-.3 8.6-1.7 15.4 3 8.1 5.6 8.5 15 8.6 16H368.5zm-221.9 18.4h99c0-.6-.2-4.7-3.7-7.7-3.4-2.9-7.4-2.4-8-2.3.1-6.4-3.3-12.3-8.7-15-6.6-3.4-15.3-1.4-20.3 5-4.2-8.3-12.9-13.3-21.9-12.7-9.9.7-18.4 8.1-20.7 18.1-1.4.1-6.2.7-10.3 4.6-4.2 3.9-5.1 8.6-5.4 10zm-23.1-32.7c.2-3.2-1.4-6.3-4.1-7.9-3.1-1.8-6.3-.8-6.9-.7-.1-.9-.4-4.7-3.6-7.7-3.9-3.7-9-3.1-9.6-3-.3-.7-1.1-3-3.6-4.6-1.5-1-3-1.2-3.8-1.3-2.8-6.5-9.2-10.7-16.2-10.7-6.9.1-13.2 4.2-16 10.7-1-.2-5.6-.8-9.9 2.3-5.7 4.1-5.4 11.2-5.3 11.7-.9-.2-4.6-1.1-8.4 1-3.5 2-5.6 5.9-5.6 10.2h93z" fill="#fff" id="Clouds"/><path id="Bush" class="st43" d="M502.1 553.1H548c.2-.7 1.2-5.1-1.7-9.3-2.9-4.3-7.7-4.9-8.3-4.9-2.5-7.9-10.5-12.8-18.3-11.5-8.5 1.4-14.7 9.5-13.6 18.5-.2 0-2.9.5-4 3-1 2-.1 3.9 0 4.2z"/><g id="Tree"><path class="st43" d="M44.1 386.2v107.2c-14-.4-26.6-8-33-19.9-7.5-14-5.2-31.7 5.9-44-.5-.9-7.2-15.1 1.1-28.9 8.6-14.3 25.2-14.4 26-14.4z"/><path d="M44.1 386.2v107.2c14-.4 26.6-8 33-19.9 7.5-14 5.2-31.7-5.9-44 .5-.9 7.2-15.1-1.1-28.9-8.6-14.3-25.3-14.4-26-14.4z" fill="#279c42"/><path class="st45" d="M59.8 449.9l-12.9 32.8v15.7L66.4 452c.9-2-.2-4.3-2-4.9-1.8-.7-4.1.5-4.6 2.8zm-18.4 10.8l-7.4-18c-1.2-1.4-3.2-1.9-4.8-1.1-1.6.8-2.5 2.6-2.2 4.4 4.6 10.4 9.8 22.3 14.4 32.7v-18z"/><path class="st45" d="M40.8 553.6V435.2c.1-.1.9-1.9 2.8-2.2 1.6-.2 3.2.6 3.9 2.2v118.3h-6.7v.1z"/></g></svg>