<svg id="Layer_1" data-name="Layer 1" xmlns="http://www.w3.org/2000/svg" viewBox="0 0 541.59 256.9"><defs><style>.cls-1{fill:#b87a2c;}.cls-2{fill:#de8f36;}.cls-3{fill:#966942;}.cls-4{fill:#c98631;opacity:0.8;isolation:isolate;}.cls-5{fill:#ad885d;}.cls-6{fill:#4e3d39;}.cls-7{fill:#664e49;}.cls-8{fill:#4e3c38;}.cls-9{fill:#ede7b3;}.cls-10{fill:#d3d0ab;}.cls-11{fill:#b6b590;}.cls-12{fill:#855f70;}.cls-13{fill:#cccba1;}.cls-14{fill:#b4b38e;}.cls-15{fill:#d55f3c;}.cls-16{fill:#f47a3b;}.cls-17{fill:#694c5b;}.cls-18{fill:#5c4250;}.cls-19{fill:#e3e1b2;}.cls-20{fill:#b5b38e;}.cls-21{fill:#c2c19a;}.cls-22{fill:#363837;}.cls-23{fill:#e4e3b4;}.cls-24,.cls-28{fill:#e36f32;}.cls-24{stroke:#e36f32;stroke-miterlimit:10;}.cls-25{fill:#e06442;}.cls-26{fill:#ffae3e;}.cls-27{fill:#a3453c;}.cls-29{fill:#b7dfd4;}.cls-30{fill:#a6cac1;}.cls-31{fill:#87ada4;}.cls-32{fill:#a8d7cb;}.cls-33{fill:#c2542e;}.cls-34{fill:#6d4452;}.cls-35{fill:none;}.cls-36{fill:#59b144;}.cls-37{fill:#279c42;}.cls-38{fill:#663c18;}</style></defs><title>truck</title><g id="boxes_in_the_left" data-name="boxes in the left"><path class="cls-1" d="M80.9,239.1h11V264h-11Z" transform="translate(-13.74 -7.7)"/><path class="cls-2" d="M91.9,239.1h17.4V264H91.9Z" transform="translate(-13.74 -7.7)"/><path class="cls-3" d="M87.9,239.1v4.5l-.3-.2h-.2l-.3-.2-.2.1-.3-.3-.3.1-.2-.3-.2.1-.3-.2-.2.1-.3-.3-.3.1v-3.5Z" transform="translate(-13.74 -7.7)"/><path class="cls-1" d="M103.2,222.6h13.3V264H103.2Z" transform="translate(-13.74 -7.7)"/><path class="cls-2" d="M115.2,222.6h34.3V264H115.2Z" transform="translate(-13.74 -7.7)"/><path class="cls-4" d="M115.2,256.1l34.3-24.5v32.3H115.2Z" transform="translate(-13.74 -7.7)"/><path class="cls-3" d="M110.9,222.6V228l-.3-.3-.3.1-.2-.3-.3.1-.2-.3-.3.1-.3-.3-.2.1-.2-.3-.3.1-.2-.3-.3.1v-4.2Z" transform="translate(-13.74 -7.7)"/><path class="cls-5" d="M130.8,222.6v4l.3-.2h.3l.2-.2.3.1.2-.2h.3l.2-.2.3.1.2-.2h.2l.3-.2.3.1v-3.1Z" transform="translate(-13.74 -7.7)"/></g><g id="Truck"><g id="wheel_on_the_back" data-name="wheel on the back"><ellipse class="cls-6" cx="365.76" cy="235.8" rx="23" ry="20.8"/><circle class="cls-7" cx="368.26" cy="235.5" r="20.6"/><circle class="cls-8" cx="368.26" cy="235.5" r="12.9"/></g><g id="wheel_on_the_back-2" data-name="wheel on the back"><ellipse class="cls-6" cx="202.46" cy="235.7" rx="23" ry="20.8"/><circle class="cls-7" cx="204.86" cy="235.5" r="20.6"/><circle class="cls-8" cx="204.86" cy="235.5" r="12.9"/></g><g id="rightside"><path class="cls-9" d="M224.4,95.7H379.5V233.5H224.4Z" transform="translate(-13.74 -7.7)"/><path class="cls-10" d="M224.4,126.4h83l-26,41.2h98.1v15.5H247.6l27.8-44.7-51,.2Z" transform="translate(-13.74 -7.7)"/><path class="cls-11" d="M224.4,102.8H379.5v4H224.4Zm0,117.8H379.5v4H224.4Z" transform="translate(-13.74 -7.7)"/><path class="cls-12" d="M224.4,233.4H379.5v13.2H224.4Z" transform="translate(-13.74 -7.7)"/><path class="cls-11" d="M265.5,172.1v6.7H264v-6.7Zm2.6,1.3h-1.8v-1.3h5.2v1.3h-1.8v5.5h-1.5v-5.5Zm5.1,3.7-.5,1.7h-1.6l2.1-6.7h2l2.1,6.7h-1.6l-.5-1.7Zm1.7-1.1-.4-1.4c-.1-.4-.2-.9-.3-1.3-.1.4-.2.9-.3,1.3l-.4,1.4Zm3.3-3.9h1.5v5.5h2.7v1.3h-4.2Zm10.9,3.3a3.26,3.26,0,1,1-6.5.1,3.26,3.26,0,0,1,3.3-3.5A3.15,3.15,0,0,1,289.1,175.4Zm-4.9.1c0,1.3.6,2.2,1.6,2.2s1.6-1,1.6-2.3-.6-2.2-1.6-2.2S284.2,174.2,284.2,175.5Zm11.9.5h-2.5v1.6h2.8v1.2h-4.3v-6.7h4.2v1.2h-2.6v1.4h2.5V176Zm4.9,2.8-.6-1.2a13.35,13.35,0,0,1-.6-1.2,10.41,10.41,0,0,1-.5,1.2l-.6,1.2H297l1.9-3.4-1.9-3.3h1.7l.6,1.2a5.36,5.36,0,0,1,.5,1.1c.2-.4.3-.7.5-1.1l.6-1.2h1.7l-1.9,3.3,2,3.4Zm2.5-6.6a11.57,11.57,0,0,1,2.1-.1,4.06,4.06,0,0,1,2.1.5,2,2,0,0,1,.7,1.6,2.11,2.11,0,0,1-.6,1.6,3.07,3.07,0,0,1-2.2.7h-.5v2.4h-1.5v-6.7Zm1.6,3h.5c.8,0,1.3-.4,1.3-1.1s-.4-1-1.2-1c-.3,0-.5,0-.6.1v2Zm4.3-3a11.52,11.52,0,0,1,2-.1,3.43,3.43,0,0,1,2.2.5,1.68,1.68,0,0,1,.6,1.4,1.88,1.88,0,0,1-1.2,1.7c.5.2.7.6.9,1.3s.4,1.6.5,1.9h-1.6a7.48,7.48,0,0,1-.5-1.6c-.2-.8-.5-1.1-1.1-1.1h-.5v2.6h-1.5v-6.6Zm1.5,2.9h.6c.8,0,1.2-.4,1.2-1s-.4-.9-1.1-.9h-.7Zm8.4.9h-2.5v1.6h2.8v1.2h-4.3v-6.7h4.2v1.2h-2.6v1.4h2.5V176Zm1.4,1.3a3.87,3.87,0,0,0,1.7.4c.7,0,1.1-.3,1.1-.7s-.3-.7-1.1-.9c-1.1-.4-1.8-1-1.8-2s1-2,2.5-2a5.79,5.79,0,0,1,1.7.3l-.3,1.2a3.66,3.66,0,0,0-1.4-.3c-.7,0-1,.3-1,.6s.4.6,1.3.9c1.2.4,1.7,1.1,1.7,2,0,1.1-.9,2.1-2.7,2.1a4.49,4.49,0,0,1-1.9-.4l.2-1.2Zm5.4,0a3.87,3.87,0,0,0,1.7.4c.7,0,1.1-.3,1.1-.7s-.3-.7-1.1-.9c-1.1-.4-1.8-1-1.8-2s1-2,2.5-2a5.79,5.79,0,0,1,1.7.3l-.3,1.2a4.2,4.2,0,0,0-1.4-.3c-.7,0-1,.3-1,.6s.4.6,1.2.9c1.2.4,1.7,1.1,1.7,2,0,1.1-.9,2.1-2.7,2.1a4.49,4.49,0,0,1-1.9-.4l.3-1.2Zm12.3,1.3a5.17,5.17,0,0,1-1.7.3,3.18,3.18,0,0,1-3.5-3.4,3.44,3.44,0,0,1,3.7-3.6,5.17,5.17,0,0,1,1.7.3l-.3,1.2a3.55,3.55,0,0,0-1.3-.3,2,2,0,0,0-2.1,2.2,2,2,0,0,0,2.2,2.2,4.44,4.44,0,0,0,1.3-.2v1.3Zm6.9-3.2a3.26,3.26,0,1,1-6.5.1,3.26,3.26,0,0,1,3.3-3.5A3.15,3.15,0,0,1,345.3,175.4Zm-4.9.1c0,1.3.6,2.2,1.6,2.2s1.6-1,1.6-2.3-.6-2.2-1.6-2.2S340.4,174.2,340.4,175.5Zm7.4-3.4V176c0,1.2.4,1.7,1.2,1.7s1.2-.6,1.2-1.7v-3.9h1.5v3.8c0,2.1-1,3.1-2.8,3.1s-2.7-.9-2.7-3.1v-3.8Zm5.3.1a11.52,11.52,0,0,1,2-.1,3.43,3.43,0,0,1,2.2.5,1.68,1.68,0,0,1,.6,1.4,1.88,1.88,0,0,1-1.2,1.7c.5.2.7.6.9,1.3s.4,1.6.5,1.9h-1.6a7.48,7.48,0,0,1-.5-1.6c-.2-.8-.5-1.1-1.1-1.1h-.5v2.6h-1.5v-6.6Zm1.5,2.9h.6c.8,0,1.2-.4,1.2-1s-.4-.9-1.1-.9h-.7Zm5.9-3v6.7H359v-6.7Zm5.4,3.9h-2.5v1.6h2.8v1.2h-4.3v-6.7h4.2v1.2h-2.6v1.4H366V176Zm1.3-3.8a11.52,11.52,0,0,1,2-.1,3.43,3.43,0,0,1,2.2.5,1.68,1.68,0,0,1,.6,1.4,1.88,1.88,0,0,1-1.2,1.7c.5.2.7.6.9,1.3s.4,1.6.5,1.9h-1.6a7.48,7.48,0,0,1-.5-1.6c-.2-.8-.5-1.1-1.1-1.1h-.5v2.6H367v-6.6Zm1.5,2.9h.6c.8,0,1.2-.4,1.2-1s-.4-.9-1.1-.9h-.7Z" transform="translate(-13.74 -7.7)"/></g><g id="back"><path class="cls-13" d="M158.7,95.7h65.7V233.5H158.7Z" transform="translate(-13.74 -7.7)"/><path class="cls-14" d="M167.5,108.9H173V227.4h-5.5Z" transform="translate(-13.74 -7.7)"/><path class="cls-15" d="M224.4,224.6H159.9a4.27,4.27,0,0,1-4.3-4.3v-3a3.54,3.54,0,0,1,3.5-3.5h65.3Z" transform="translate(-13.74 -7.7)"/><path class="cls-16" d="M224.4,213.9h13.7v10.7H224.4Z" transform="translate(-13.74 -7.7)"/><path class="cls-17" d="M173,108.9h43.2V227.4H173Z" transform="translate(-13.74 -7.7)"/><path class="cls-18" d="M173.5,109.4l42.7,118H173Z" transform="translate(-13.74 -7.7)"/><path class="cls-17" d="M160.4,233.3h64v13.3H160.5a6.06,6.06,0,0,1-6.1-6.1v-1.2A6.08,6.08,0,0,1,160.4,233.3Z" transform="translate(-13.74 -7.7)"/></g><g id="scivolo"><path class="cls-19" d="M167.5,227.8h38v8.6l-36.4,23.3H122.6" transform="translate(-13.74 -7.7)"/><path class="cls-20" d="M122.6,259.7h46.5V264H122.6Zm82.9-19.8-36.4,24v-4.3l36.4-23.8Z" transform="translate(-13.74 -7.7)"/><path class="cls-21" d="M168.2,232.4H204v.6H168.2Zm-10.5,7.1h35.8v.6H157.7Zm-10.8,7.1h35.8v.6H146.9ZM136,253.7h35.8v.6H136Z" transform="translate(-13.74 -7.7)"/></g><g id="wheel_hole" data-name="wheel+hole"><path id="hole" class="cls-22" d="M306.2,245.5a16.2,16.2,0,0,0,.1-2.2,28.4,28.4,0,0,0-56.8,0,15.48,15.48,0,0,0,.1,2.2Z" transform="translate(-13.74 -7.7)"/><g id="Wheel"><ellipse class="cls-6" cx="264.56" cy="235.3" rx="23" ry="20.9"/><circle class="cls-7" cx="266.96" cy="234.9" r="20.6"/><circle class="cls-23" cx="266.96" cy="234.9" r="12.9"/><circle class="cls-13" cx="266.96" cy="234.9" r="6.9"/></g></g><g id="fiancata"><path class="cls-24" d="M490.4,233.4h-101v-40h97.9a3.12,3.12,0,0,1,3.1,3.1Z" transform="translate(-13.74 -7.7)"/><path class="cls-12" d="M488.8,246.1H389.4V232.9h99.4a6.06,6.06,0,0,1,6.1,6.1v1.1a6.1,6.1,0,0,1-6.1,6Z" transform="translate(-13.74 -7.7)"/><path class="cls-17" d="M389.4,246.1h-10l.1-13.3h9.9Z" transform="translate(-13.74 -7.7)"/><path class="cls-16" d="M387.6,193.4H489l-2.9-5.1a14.4,14.4,0,0,0-9.6-7l-17.9-3.9-12.2-37.8a9.63,9.63,0,0,0-2.1-3.5l-1.8-2.2a13.82,13.82,0,0,0-10.7-5H387.7l-.1,64.5Z" transform="translate(-13.74 -7.7)"/><path class="cls-25" d="M379.5,128.9h9.9V232.8h-9.9Z" transform="translate(-13.74 -7.7)"/><path class="cls-26" d="M489.6,228.1H477.5v-9.8h12.1a4,4,0,0,1,4,4v1.8A4,4,0,0,1,489.6,228.1Z" transform="translate(-13.74 -7.7)"/><path id="lights" class="cls-27" d="M479.5,212.1H490v1.6H479.5Zm0-5.4H490v1.6H479.5Zm0-5.5H490v1.6H479.5Z" transform="translate(-13.74 -7.7)"/><path class="cls-28" d="M393.7,133.9h15.5v42.7H393.7Z" transform="translate(-13.74 -7.7)"/><g id="window"><path class="cls-29" d="M419.4,132.9h12a10.8,10.8,0,0,1,10.2,7.2l12.7,36.4H419.5a5.16,5.16,0,0,1-5.2-5.2V138a5,5,0,0,1,5.1-5.1Z" transform="translate(-13.74 -7.7)"/><path class="cls-30" d="M423.5,176.6h-5.8a3.54,3.54,0,0,1-3.5-3.5V167h9.3Z" transform="translate(-13.74 -7.7)"/><path class="cls-31" d="M417,173.5,440.4,139c.1-.2.4-.5,1,.9l12.7,36.4c.1.1-.1.3-.2.3H418.4a1.5,1.5,0,0,1-1.4-1l-.2-.6a1.6,1.6,0,0,1,.2-1.5Z" transform="translate(-13.74 -7.7)"/><path class="cls-32" d="M450.8,166.9l-9.4-27.1c-.6-1.4-.9-1-1-.9l-19,28Z" transform="translate(-13.74 -7.7)"/></g><g id="wheel_hole-2" data-name="wheel+hole"><path id="hole-2" data-name="hole" class="cls-22" d="M462.1,246.1a16.2,16.2,0,0,0,.1-2.2,28.4,28.4,0,1,0-56.8,0,15.48,15.48,0,0,0,.1,2.2Z" transform="translate(-13.74 -7.7)"/><g id="Wheel-2" data-name="Wheel"><ellipse class="cls-6" cx="420.46" cy="235.8" rx="23" ry="20.8"/><circle class="cls-7" cx="422.86" cy="235.5" r="20.6"/><circle class="cls-23" cx="422.86" cy="235.5" r="12.9"/><circle class="cls-13" cx="422.86" cy="235.5" r="6.9"/></g></g><path class="cls-33" d="M422.7,128.9H379.5V117.1h30.3c7.2.1,12.9,4.7,12.9,11.8Z" transform="translate(-13.74 -7.7)"/><g id="mirror"><path class="cls-28" d="M444.1,134.9h15.2a4.3,4.3,0,0,1,4,2.9l3.3,10.7c.4,1.4-.6,3.5-2.1,3.5h-5.6l-4.3-14-8.1-.1Z" transform="translate(-13.74 -7.7)"/><path class="cls-34" d="M454,138h1.7l4.5,13.7h-1.3Z" transform="translate(-13.74 -7.7)"/></g></g></g><g id="boxes_inside" data-name="boxes inside"><path class="cls-1" d="M190.2,169.7H208V227H190.2Z" transform="translate(-13.74 -7.7)"/><path class="cls-2" d="M208,169.7h8.4v57.4H208Z" transform="translate(-13.74 -7.7)"/><path class="cls-3" d="M200.7,169.7v8.5l-.3-.5-.3.1-.2-.4-.3.1-.2-.4-.3.1-.3-.4-.2.1-.2-.4-.3.1-.2-.5-.3.2v-6.6Z" transform="translate(-13.74 -7.7)"/><path class="cls-1" d="M180,192.8h13.8v34.3H180Z" transform="translate(-13.74 -7.7)"/><path class="cls-2" d="M193.7,192.8h22.6v34.3H193.7Z" transform="translate(-13.74 -7.7)"/><path class="cls-5" d="M203.1,192.8v5.6l.3-.3.3.1.2-.3.3.1.2-.3h.3l.3-.2.2.1.2-.3.3.1.3-.3.3.1v-4.4Z" transform="translate(-13.74 -7.7)"/><path class="cls-3" d="M188.4,192.8v4.1l-.3-.3-.2.1-.3-.2h-.2l-.3-.2-.3.1-.2-.2h-.2l-.3-.2-.2.1-.3-.2-.3.1v-3.2Z" transform="translate(-13.74 -7.7)"/><path class="cls-4" d="M212.1,169.7h4.3v57.4H200.5Z" transform="translate(-13.74 -7.7)"/></g><g id="Boxes_on_the_right" data-name="Boxes on the right"><g id="box3"><path class="cls-1" d="M248.9,200.2h17.3V264H248.9Z" transform="translate(-13.74 -7.7)"/><path class="cls-2" d="M265.2,200.2h19.6V264H265.2Z" transform="translate(-13.74 -7.7)"/><path class="cls-4" d="M265.2,246.8h19.6v17.3H265.2Z" transform="translate(-13.74 -7.7)"/><path class="cls-5" d="M273.2,200.2v8.5l.3-.5.2.1.3-.4.2.1.3-.4.3.1.2-.4.2.1.3-.4.2.1.3-.5.3.2v-6.6Z" transform="translate(-13.74 -7.7)"/><path class="cls-3" d="M258.6,200.2v4l-.3-.2-.2.1-.3-.2h-.2l-.3-.2-.3.1-.2-.2h-.2l-.3-.2-.2.1-.3-.2h-.3v-3.1Z" transform="translate(-13.74 -7.7)"/></g><g id="box2"><path class="cls-1" d="M205.1,224.1h16.6V264H205.1Z" transform="translate(-13.74 -7.7)"/><path class="cls-2" d="M221.7,224.1h39.9V264H221.7Z" transform="translate(-13.74 -7.7)"/><path class="cls-4" d="M221.7,263.9l39.9-39.6v39.9Z" transform="translate(-13.74 -7.7)"/><path class="cls-4" d="M231.7,249.1V254l5-5Z" transform="translate(-13.74 -7.7)"/><path class="cls-3" d="M215,224.1v4l-.3-.2h-.3l-.2-.2-.3.1-.2-.2h-.3l-.2-.2-.3.1-.2-.2h-.2l-.3-.2-.3.1v-3.1Z" transform="translate(-13.74 -7.7)"/><path class="cls-5" d="M239.2,224.1v5.6l.3-.3h.3l.2-.2h.3l.2-.2h.3l.2-.3.3.1.2-.3.2.1.3-.3.3.1v-4.3Z" transform="translate(-13.74 -7.7)"/></g><g id="box1"><path class="cls-1" d="M234.4,251.1h9V264h-9Z" transform="translate(-13.74 -7.7)"/><path class="cls-2" d="M243.4,251.1h49.4V264H243.4Z" transform="translate(-13.74 -7.7)"/><path class="cls-3" d="M240.2,251.1v1.8l-.3-.1-.3.1-.2-.1h-.3l-.2-.1h-.3l-.3-.1-.2.1-.2-.1h-.3l-.2-.1h-.3v-1.4Z" transform="translate(-13.74 -7.7)"/></g></g><path id="Clouds" class="cls-35" d="M375.5,57.9a9.64,9.64,0,0,1,2.3-6.6,9.76,9.76,0,0,1,7.1-3.1,13.07,13.07,0,0,1,1.7-13.7c4.4-5.4,11.3-4.6,11.7-4.6a17.36,17.36,0,0,1,31.4-10,11.72,11.72,0,0,1,22.6,4.8l5.1,6a16.93,16.93,0,0,1,9.1-1.1A18.07,18.07,0,0,1,476.8,35a16.85,16.85,0,0,1,32,3.9,20.18,20.18,0,0,1,15.4,3c8.1,5.6,8.5,15,8.6,16ZM153.6,76.3h99a10.79,10.79,0,0,0-3.7-7.7,10.33,10.33,0,0,0-8-2.3,16.39,16.39,0,0,0-8.7-15c-6.6-3.4-15.3-1.4-20.3,5a22.67,22.67,0,0,0-42.6,5.4A17.14,17.14,0,0,0,159,66.3a18.3,18.3,0,0,0-5.4,10ZM130.5,43.6a8.6,8.6,0,0,0-4.1-7.9,9.33,9.33,0,0,0-6.9-.7,12,12,0,0,0-3.6-7.7,12.06,12.06,0,0,0-9.6-3,9.23,9.23,0,0,0-3.6-4.6,8.46,8.46,0,0,0-3.8-1.3,17.46,17.46,0,0,0-32.2,0,13.31,13.31,0,0,0-9.9,2.3c-5.7,4.1-5.4,11.2-5.3,11.7a11.75,11.75,0,0,0-8.4,1,11.59,11.59,0,0,0-5.6,10.2Z" transform="translate(-13.74 -7.7)"/><path id="Bush" class="cls-36" d="M509.1,264.1H555a11.49,11.49,0,0,0-10-14.2,16.37,16.37,0,0,0-31.9,7,5.41,5.41,0,0,0-4,3A5.1,5.1,0,0,0,509.1,264.1Z" transform="translate(-13.74 -7.7)"/><g id="Tree"><path class="cls-36" d="M51.1,97.2V204.4a38.52,38.52,0,0,1-33-19.9c-7.5-14-5.2-31.7,5.9-44-.5-.9-7.2-15.1,1.1-28.9,8.6-14.3,25.2-14.4,26-14.4Z" transform="translate(-13.74 -7.7)"/><path class="cls-37" d="M51.1,97.2V204.4a38.52,38.52,0,0,0,33-19.9c7.5-14,5.2-31.7-5.9-44,.5-.9,7.2-15.1-1.1-28.9-8.6-14.3-25.3-14.4-26-14.4Z" transform="translate(-13.74 -7.7)"/><path class="cls-38" d="M66.8,160.9,53.9,193.7v15.7L73.4,163a3.65,3.65,0,0,0-2-4.9A3.58,3.58,0,0,0,66.8,160.9ZM48.4,171.7l-7.4-18a4,4,0,0,0-4.8-1.1A4.16,4.16,0,0,0,34,157c4.6,10.4,9.8,22.3,14.4,32.7Z" transform="translate(-13.74 -7.7)"/><path class="cls-38" d="M47.8,264.6V146.2a4.18,4.18,0,0,1,2.8-2.2,3.7,3.7,0,0,1,3.9,2.2V264.5H47.8Z" transform="translate(-13.74 -7.7)"/></g></svg>