<?xml version="1.0" encoding="utf-8"?>
<!-- Generator: Adobe Illustrator 22.1.0, SVG Export Plug-In . SVG Version: 6.00 Build 0)  -->
<svg version="1.1" id="Layer_1" xmlns="http://www.w3.org/2000/svg" xmlns:xlink="http://www.w3.org/1999/xlink" x="0px" y="0px"
	 viewBox="0 0 33.7 34.2" style="enable-background:new 0 0 33.7 34.2;" xml:space="preserve">
<style type="text/css">
	.st0{fill:#DE8F36;}
	.st1{fill:#EA9847;}
	.st2{fill:#9B7559;}
	.st3{fill:#B87A2C;}
	.st4{fill:#966942;}
	.st5{fill:#FFFFFF;}
	.st6{fill:#6D6E70;}
</style>
<g id="Grey">
	<g id="Package">
		<rect x="6.8" y="7.3" class="st0" width="26.4" height="26.3"/>
		<polygon class="st1" points="33.2,7.3 6.8,7.3 0.5,0.7 27,0.7 		"/>
		<polygon class="st2" points="30.1,4 3.7,4.1 2.6,2.9 28.9,2.8 		"/>
		<polygon class="st3" points="0.5,0.7 6.8,7.3 6.8,33.6 0.5,27.5 		"/>
		<path class="st4" d="M3.7,4.1c0,1,0,1.9,0,2.9L3.6,6.8H3.5L3.4,6.6H3.3L3.2,6.4H3.1L3,6.2L2.9,6.3L2.8,6.1H2.7l0-0.1L2.6,6.1
			c0-1.1,0-2.1,0-3.2C2.9,3.3,3.3,3.7,3.7,4.1z"/>
		<rect x="23" y="24.3" class="st5" width="9.4" height="6.7"/>
		<g>
			<rect x="23.4" y="30" class="st6" width="3.7" height="0.4"/>
			<rect x="23.4" y="29.3" class="st6" width="3.4" height="0.4"/>
			<rect x="23.7" y="26.4" class="st6" width="3.4" height="0.4"/>
			<rect x="23.7" y="25.7" class="st6" width="6" height="0.4"/>
			<rect x="23.8" y="25" class="st6" width="7.8" height="0.4"/>
			<rect x="27.8" y="27.5" class="st6" width="3.4" height="0.2"/>
			<rect x="27.9" y="28.1" class="st6" width="2" height="0.2"/>
		</g>
	</g>
</g>
</svg>
