<?xml version="1.0" encoding="utf-8"?>
<!-- Generator: Adobe Illustrator 19.0.0, SVG Export Plug-In . SVG Version: 6.00 Build 0)  -->
<svg version="1.1" id="Layer_1" xmlns="http://www.w3.org/2000/svg" xmlns:xlink="http://www.w3.org/1999/xlink" x="0px" y="0px"
	 viewBox="-7 289 99 43.9" style="enable-background:new -7 289 99 43.9;" xml:space="preserve">
<style type="text/css">
	.st0{display:none;fill:#D3C40D;}
	.st1{fill:#FFFFFF;}
</style>
<g id="Clouds">
	<path class="st0" d="M331,348c0-0.7-0.1-3.9,2.3-6.6c2.8-3.1,6.6-3.1,7.1-3.1c-2.1-4.6-1.4-9.9,1.7-13.7c4.4-5.4,11.3-4.6,11.7-4.6
		c0.1-7.4,5-14,12-16.3c7.1-2.3,15,0.2,19.4,6.3c2.5-5.7,8.7-8.5,14.3-6.9c4.9,1.5,8.4,6.3,8.3,11.7c1.7,2,3.4,4,5.1,6
		c1.5-0.6,4.9-1.8,9.1-1.1c5.7,0.8,9.2,4.3,10.3,5.4c3-6.4,9.5-10.4,16.3-10c7.6,0.4,14.1,6.1,15.7,13.9c1.3-0.3,8.6-1.7,15.4,3
		c8.1,5.6,8.5,15,8.6,16C435.9,348,383.5,348,331,348z"/>
	<path class="st0" d="M109.1,366.4h99c0-0.6-0.2-4.7-3.7-7.7c-3.4-2.9-7.4-2.4-8-2.3c0.1-6.4-3.3-12.3-8.7-15
		c-6.6-3.4-15.3-1.4-20.3,5c-4.2-8.3-12.9-13.3-21.9-12.7c-9.9,0.7-18.4,8.1-20.7,18.1c-1.4,0.1-6.2,0.7-10.3,4.6
		C110.3,360.3,109.4,365,109.1,366.4z"/>
	<path class="st1" d="M88.5,328c0.2-3.2-1.4-6.3-4.1-7.9c-3.1-1.8-6.3-0.8-6.9-0.7c-0.1-0.9-0.4-4.7-3.6-7.7c-3.9-3.7-9-3.1-9.6-3
		c-0.3-0.7-1.1-3-3.6-4.6c-1.5-1-3-1.2-3.8-1.3c-2.8-6.5-9.2-10.7-16.2-10.7c-6.9,0.1-13.2,4.2-16,10.7c-1-0.2-5.6-0.8-9.9,2.3
		c-5.7,4.1-5.4,11.2-5.3,11.7c-0.9-0.2-4.6-1.1-8.4,1c-3.5,2-5.6,5.9-5.6,10.2C26.6,328,57.6,328,88.5,328z"/>
</g>
</svg>
