<?xml version="1.0" encoding="utf-8"?>
<!-- Generator: Adobe Illustrator 19.0.0, SVG Export Plug-In . SVG Version: 6.00 Build 0)  -->
<svg version="1.1" id="Layer_1" xmlns="http://www.w3.org/2000/svg" xmlns:xlink="http://www.w3.org/1999/xlink" x="0px" y="0px"
	 viewBox="-188 311.9 218 218" style="enable-background:new -188 311.9 218 218;" xml:space="preserve">
<style type="text/css">
	.st0{fill:#FFFFFF;}
</style>
<g>
	<path class="st0" d="M-103.7,423c0,13.6,11.1,24.7,24.7,24.7s24.7-11.1,24.7-24.7c0-13.6-11.1-24.7-24.7-24.7
		S-103.7,409.3-103.7,423L-103.7,423z M7,441.1c-0.2-4.5-7.3-10.6-19.5-7.8c-8.9,2.1-21.2,9.6-33.6,22.2c-9.1,9.1-17.4,23-17.4,45
		C-63.4,526.6,8.1,476.9,7,441.1L7,441.1z M-165.3,403.5c-0.5,4.3,8.3,3.8,13.6,3c16.9-3,45.4-17.7,74-17.7c20,0,41.4,9.4,55.8,13.6
		c5,1.5,12.1,4,22.2,4.5c3.8,0.2,7.6-0.7,7.3-4C6.2,379.6-24,333.2-79,333.2C-120.9,333.3-162,368.4-165.3,403.5L-165.3,403.5z
		 M-164.5,441.1c-1.2,35.8,70.7,85.5,70.7,59.3c0-21.9-8.3-35.8-17.4-45c-12.4-12.3-24.5-20-33.6-21.9
		C-157.2,430.8-164.3,436.6-164.5,441.1L-164.5,441.1z M-185,420.9c0-58.6,47.4-106,106-106s106,47.4,106,106s-47.4,106-106,106
		S-185,479.5-185,420.9L-185,420.9z M-96.2,423c0-9.4,7.8-17.2,17.2-17.2s17.2,7.8,17.2,17.2c0,9.4-7.8,17.2-17.2,17.2
		S-96.2,432.7-96.2,423L-96.2,423z"/>
	<path class="st0" d="M-103.7,423c0,13.6,11.1,24.7,24.7,24.7s24.7-11.1,24.7-24.7c0-13.6-11.1-24.7-24.7-24.7
		S-103.7,409.3-103.7,423L-103.7,423z M7,441.1c-0.2-4.5-7.3-10.6-19.5-7.8c-8.9,2.1-21.2,9.6-33.6,22.2c-9.1,9.1-17.4,23-17.4,45
		C-63.4,526.6,8.1,476.9,7,441.1L7,441.1z M-165.3,403.5c-0.5,4.3,8.3,3.8,13.6,3c16.9-3,45.4-17.7,74-17.7c20,0,41.4,9.4,55.8,13.6
		c5,1.5,12.1,4,22.2,4.5c3.8,0.2,7.6-0.7,7.3-4C6.2,379.6-24,333.2-79,333.2C-120.9,333.3-162,368.4-165.3,403.5L-165.3,403.5z
		 M-164.5,441.1c-1.2,35.8,70.7,85.5,70.7,59.3c0-21.9-8.3-35.8-17.4-45c-12.4-12.3-24.5-20-33.6-21.9
		C-157.2,430.8-164.3,436.6-164.5,441.1L-164.5,441.1z M-185,420.9c0-58.6,47.4-106,106-106s106,47.4,106,106s-47.4,106-106,106
		S-185,479.5-185,420.9L-185,420.9z M-96.2,423c0-9.4,7.8-17.2,17.2-17.2s17.2,7.8,17.2,17.2c0,9.4-7.8,17.2-17.2,17.2
		S-96.2,432.7-96.2,423L-96.2,423z"/>
</g>
</svg>
