<?xml version="1.0" encoding="utf-8"?>
<!-- Generator: Adobe Illustrator 19.0.0, SVG Export Plug-In . SVG Version: 6.00 Build 0)  -->
<svg version="1.1" id="Layer_1" xmlns="http://www.w3.org/2000/svg" xmlns:xlink="http://www.w3.org/1999/xlink" x="0px" y="0px"
	 viewBox="147.4 384.7 340.5 168.2" style="enable-background:new 147.4 384.7 340.5 168.2;" xml:space="preserve">
<style type="text/css">
	.st0{display:none;fill:#7AD6C2;stroke:#E36F32;stroke-miterlimit:10;}
	.st1{fill:#4E3D39;}
	.st2{fill:#664E49;}
	.st3{fill:#4E3C38;}
	.st4{fill:#EDE7B3;}
	.st5{fill:#D3D0AB;}
	.st6{display:none;fill:#B6B590;}
	.st7{fill:#B6B590;}
	.st8{fill:#855F70;}
	.st9{display:none;fill:#B6B590;enable-background:new    ;}
	.st10{font-family:'MyriadPro-Bold';}
	.st11{font-size:10px;}
	.st12{fill:#CCCBA1;}
	.st13{fill:#B4B38E;}
	.st14{fill:#F47A3B;}
	.st15{fill:#D55F3C;}
	.st16{fill:#694C5B;}
	.st17{fill:#5C4250;}
	.st18{display:none;}
	.st19{display:inline;fill:#E3E1B2;}
	.st20{display:inline;fill:#B5B38E;}
	.st21{fill:#363837;}
	.st22{fill:#E4E3B4;}
	.st23{fill:#E36F32;stroke:#E36F32;stroke-miterlimit:10;}
	.st24{fill:#E06442;}
	.st25{fill:#FFAE3E;}
	.st26{fill:#A3453C;}
	.st27{fill:#E36F32;}
	.st28{fill:#B7DFD4;}
	.st29{fill:#A6CAC1;}
	.st30{fill:#87ADA4;}
	.st31{fill:#A8D7CB;}
	.st32{fill:#C2542E;}
	.st33{fill:#6D4452;}
	.st34{fill:#B5B38E;}
	.st35{fill:#A5A389;}
</style>
<image style="display:none;overflow:visible;enable-background:new    ;" width="581" height="361" xlink:href="9CEAD08B.png"  transform="matrix(0.9983 0 0 0.9972 -2.5002 288.99)">
</image>
<rect id="Background" x="-2.5" y="289" class="st0" width="580" height="360"/>
<g id="Truck">
	<g id="wheel_on_the_back">
		<ellipse class="st1" cx="372.5" cy="532.5" rx="23" ry="20.8"/>
		<circle class="st2" cx="375" cy="532.2" r="20.6"/>
		<circle class="st3" cx="375" cy="532.2" r="12.9"/>
	</g>
	<g id="wheel_on_the_back_1_">
		<ellipse class="st1" cx="209.2" cy="532.4" rx="23" ry="20.8"/>
		<circle class="st2" cx="211.6" cy="532.2" r="20.6"/>
		<circle class="st3" cx="211.6" cy="532.2" r="12.9"/>
	</g>
	<g id="rightside">
		<rect x="217.4" y="384.7" class="st4" width="155.1" height="137.8"/>
		<polygon class="st5" points="217.4,415.4 300.4,415.4 274.4,456.6 372.5,456.6 372.5,472.1 240.6,472.1 268.4,427.4 217.4,427.6 
					"/>
		<polygon class="st6" points="271.7,438.2 264.5,438.2 278.3,458.7 285.3,458.7 		"/>
		<polygon class="st6" points="254.4,438.2 247.3,438.2 261.1,458.7 268.1,458.7 		"/>
		<polygon class="st6" points="340.8,431.3 348,431.3 334.2,451.8 327.2,451.8 		"/>
		<polygon class="st6" points="357.4,431.3 364.6,431.3 350.8,451.8 343.8,451.8 		"/>
		<rect x="217.4" y="391.8" class="st7" width="155.1" height="4"/>
		<rect x="217.4" y="509.6" class="st7" width="155.1" height="4"/>
		<rect x="217.4" y="522.4" class="st8" width="155.1" height="13.2"/>
		<text transform="matrix(1 0 0 1 255.63 467.8232)" class="st9 st10 st11">ITALO EXPRESS COURIER</text>
		<g>
			<path class="st7" d="M258.5,461.1v6.7H257v-6.7H258.5z"/>
			<path class="st7" d="M261.1,462.4h-1.8v-1.3h5.2v1.3h-1.8v5.5h-1.5v-5.5H261.1z"/>
			<path class="st7" d="M266.2,466.1l-0.5,1.7h-1.6l2.1-6.7h2l2.1,6.7h-1.6l-0.5-1.7H266.2z M267.9,465l-0.4-1.4
				c-0.1-0.4-0.2-0.9-0.3-1.3l0,0c-0.1,0.4-0.2,0.9-0.3,1.3l-0.4,1.4H267.9z"/>
			<path class="st7" d="M271.2,461.1h1.5v5.5h2.7v1.3h-4.2V461.1z"/>
			<path class="st7" d="M282.1,464.4c0,2.2-1.3,3.5-3.3,3.5s-3.2-1.5-3.2-3.4c0-2,1.3-3.5,3.3-3.5S282.1,462.5,282.1,464.4z
				 M277.2,464.5c0,1.3,0.6,2.2,1.6,2.2s1.6-1,1.6-2.3c0-1.2-0.6-2.2-1.6-2.2C277.8,462.2,277.2,463.2,277.2,464.5z"/>
			<path class="st7" d="M289.1,465h-2.5v1.6h2.8v1.2h-4.3v-6.7h4.2v1.2h-2.6v1.4h2.5v1.3H289.1z"/>
			<path class="st7" d="M294,467.8l-0.6-1.2c-0.3-0.5-0.4-0.8-0.6-1.2l0,0c-0.1,0.4-0.3,0.7-0.5,1.2l-0.6,1.2H290l1.9-3.4l-1.9-3.3
				h1.7l0.6,1.2c0.2,0.4,0.4,0.7,0.5,1.1l0,0c0.2-0.4,0.3-0.7,0.5-1.1l0.6-1.2h1.7l-1.9,3.3l2,3.4H294z"/>
			<path class="st7" d="M296.5,461.2c0.5-0.1,1.1-0.1,2.1-0.1c0.9,0,1.6,0.2,2.1,0.5c0.4,0.3,0.7,0.9,0.7,1.6s-0.2,1.2-0.6,1.6
				c-0.5,0.5-1.3,0.7-2.2,0.7c-0.2,0-0.4,0-0.5,0v2.4h-1.5v-6.7H296.5z M298.1,464.2c0.1,0,0.3,0,0.5,0c0.8,0,1.3-0.4,1.3-1.1
				c0-0.6-0.4-1-1.2-1c-0.3,0-0.5,0-0.6,0.1L298.1,464.2L298.1,464.2z"/>
			<path class="st7" d="M302.4,461.2c0.5-0.1,1.2-0.1,2-0.1c1,0,1.7,0.1,2.2,0.5c0.4,0.3,0.6,0.8,0.6,1.4c0,0.9-0.6,1.4-1.2,1.7l0,0
				c0.5,0.2,0.7,0.6,0.9,1.3c0.2,0.8,0.4,1.6,0.5,1.9h-1.6c-0.1-0.2-0.3-0.7-0.5-1.6c-0.2-0.8-0.5-1.1-1.1-1.1h-0.5v2.6h-1.5v-6.6
				H302.4z M303.9,464.1h0.6c0.8,0,1.2-0.4,1.2-1c0-0.6-0.4-0.9-1.1-0.9c-0.4,0-0.6,0-0.7,0V464.1z"/>
			<path class="st7" d="M312.3,465h-2.5v1.6h2.8v1.2h-4.3v-6.7h4.2v1.2h-2.6v1.4h2.5v1.3H312.3z"/>
			<path class="st7" d="M313.7,466.3c0.4,0.2,1,0.4,1.7,0.4s1.1-0.3,1.1-0.7c0-0.4-0.3-0.7-1.1-0.9c-1.1-0.4-1.8-1-1.8-2
				c0-1.1,1-2,2.5-2c0.8,0,1.3,0.2,1.7,0.3l-0.3,1.2c-0.3-0.1-0.7-0.3-1.4-0.3c-0.7,0-1,0.3-1,0.6c0,0.4,0.4,0.6,1.3,0.9
				c1.2,0.4,1.7,1.1,1.7,2c0,1.1-0.9,2.1-2.7,2.1c-0.8,0-1.5-0.2-1.9-0.4L313.7,466.3z"/>
			<path class="st7" d="M319.1,466.3c0.4,0.2,1,0.4,1.7,0.4s1.1-0.3,1.1-0.7c0-0.4-0.3-0.7-1.1-0.9c-1.1-0.4-1.8-1-1.8-2
				c0-1.1,1-2,2.5-2c0.8,0,1.3,0.2,1.7,0.3l-0.3,1.2c-0.3-0.1-0.8-0.3-1.4-0.3c-0.7,0-1,0.3-1,0.6c0,0.4,0.4,0.6,1.2,0.9
				c1.2,0.4,1.7,1.1,1.7,2c0,1.1-0.9,2.1-2.7,2.1c-0.8,0-1.5-0.2-1.9-0.4L319.1,466.3z"/>
			<path class="st7" d="M331.4,467.6c-0.3,0.1-0.9,0.3-1.7,0.3c-2.3,0-3.5-1.4-3.5-3.4c0-2.3,1.6-3.6,3.7-3.6c0.8,0,1.4,0.2,1.7,0.3
				l-0.3,1.2c-0.3-0.1-0.7-0.3-1.3-0.3c-1.2,0-2.1,0.7-2.1,2.2c0,1.3,0.8,2.2,2.2,2.2c0.5,0,1-0.1,1.3-0.2L331.4,467.6z"/>
			<path class="st7" d="M338.3,464.4c0,2.2-1.3,3.5-3.3,3.5s-3.2-1.5-3.2-3.4c0-2,1.3-3.5,3.3-3.5
				C337.1,461,338.3,462.5,338.3,464.4z M333.4,464.5c0,1.3,0.6,2.2,1.6,2.2s1.6-1,1.6-2.3c0-1.2-0.6-2.2-1.6-2.2
				S333.4,463.2,333.4,464.5z"/>
			<path class="st7" d="M340.8,461.1v3.9c0,1.2,0.4,1.7,1.2,1.7c0.8,0,1.2-0.6,1.2-1.7v-3.9h1.5v3.8c0,2.1-1,3.1-2.8,3.1
				c-1.7,0-2.7-0.9-2.7-3.1v-3.8H340.8z"/>
			<path class="st7" d="M346.1,461.2c0.5-0.1,1.2-0.1,2-0.1c1,0,1.7,0.1,2.2,0.5c0.4,0.3,0.6,0.8,0.6,1.4c0,0.9-0.6,1.4-1.2,1.7l0,0
				c0.5,0.2,0.7,0.6,0.9,1.3c0.2,0.8,0.4,1.6,0.5,1.9h-1.6c-0.1-0.2-0.3-0.7-0.5-1.6c-0.2-0.8-0.5-1.1-1.1-1.1h-0.5v2.6h-1.5v-6.6
				H346.1z M347.6,464.1h0.6c0.8,0,1.2-0.4,1.2-1c0-0.6-0.4-0.9-1.1-0.9c-0.4,0-0.6,0-0.7,0V464.1z"/>
			<path class="st7" d="M353.5,461.1v6.7H352v-6.7H353.5z"/>
			<path class="st7" d="M358.9,465h-2.5v1.6h2.8v1.2h-4.3v-6.7h4.2v1.2h-2.6v1.4h2.5v1.3H358.9z"/>
			<path class="st7" d="M360.2,461.2c0.5-0.1,1.2-0.1,2-0.1c1,0,1.7,0.1,2.2,0.5c0.4,0.3,0.6,0.8,0.6,1.4c0,0.9-0.6,1.4-1.2,1.7l0,0
				c0.5,0.2,0.7,0.6,0.9,1.3c0.2,0.8,0.4,1.6,0.5,1.9h-1.6c-0.1-0.2-0.3-0.7-0.5-1.6c-0.2-0.8-0.5-1.1-1.1-1.1h-0.5v2.6H360v-6.6
				H360.2z M361.7,464.1h0.6c0.8,0,1.2-0.4,1.2-1c0-0.6-0.4-0.9-1.1-0.9c-0.4,0-0.6,0-0.7,0V464.1z"/>
		</g>
	</g>
	<g id="back">
		<rect x="151.7" y="384.7" class="st12" width="65.7" height="137.8"/>
		<rect x="160.5" y="397.9" class="st13" width="5.5" height="118.5"/>
		<rect x="217.4" y="502.9" class="st14" width="13.7" height="10.7"/>
		<path class="st15" d="M217.4,513.6h-64.5c-2.4,0-4.3-1.9-4.3-4.3v-3c0-1.9,1.6-3.5,3.5-3.5h65.3V513.6z"/>
		<path class="st15" d="M153.2,502.8h65.3c1.9,0,3.5,1.6,3.5,3.5v3c0,2.4-1.9,4.3-4.3,4.3h-64.5V502.8z"/>
		<rect x="166" y="397.9" class="st16" width="43.2" height="118.5"/>
		<polygon class="st17" points="166.5,398.4 209.2,516.4 166,516.4 		"/>
		<path class="st16" d="M153.4,522.3h64v13.3h-63.9c-3.4,0-6.1-2.7-6.1-6.1v-1.2C147.4,525.1,150.1,522.3,153.4,522.3z"/>
	</g>
	<g id="scivolo" class="st18">
		<polyline class="st19" points="160.5,516.8 198.5,516.8 198.5,525.4 162.1,548.7 115.6,548.7 		"/>
		<rect x="115.6" y="548.7" class="st20" width="46.5" height="4.3"/>
		<polygon class="st20" points="198.5,528.9 162.1,552.9 162.1,548.6 198.5,524.8 		"/>
	</g>
	<g id="wheel_x2B_hole_1_">
		<path id="hole_1_" class="st21" d="M299.2,535.6c0.1-0.7,0.1-1.6,0.1-2.3c0-16.3-12.7-29.4-28.4-29.4c-15.7,0-28.4,13.2-28.4,29.4
			c0,0.8,0,1.6,0.1,2.3H299.2z"/>
		<g id="Wheel_1_">
			<ellipse class="st1" cx="271.3" cy="532" rx="23" ry="20.9"/>
			<circle class="st2" cx="273.7" cy="531.6" r="20.6"/>
			<circle class="st22" cx="273.7" cy="531.6" r="12.9"/>
			<circle class="st12" cx="273.7" cy="531.6" r="6.9"/>
		</g>
	</g>
	<g id="fiancata">
		<path class="st23" d="M483.4,522.4h-101v-40h97.9c1.7,0,3.1,1.4,3.1,3.1V522.4z"/>
		<path class="st8" d="M481.8,535.1h-99.4v-13.2h99.4c3.4,0,6.1,2.7,6.1,6.1v1.1C487.9,532.4,485.1,535.1,481.8,535.1z"/>
		<polygon class="st16" points="382.4,535.1 372.4,535.1 372.5,521.8 382.4,521.8 		"/>
		<path class="st14" d="M380.6,482.4H482l-2.9-5.1c-2-3.6-5.5-6.1-9.6-7l-17.9-3.9l-12.2-37.8c-0.4-1.3-1.2-2.5-2.1-3.5l-1.8-2.2
			c-2.6-3.2-6.6-5-10.7-5h-44.1L380.6,482.4L380.6,482.4z"/>
		<rect x="372.5" y="417.9" class="st24" width="9.9" height="103.9"/>
		<path class="st25" d="M482.6,517.1h-12.1v-9.8h12.1c2.2,0,4,1.8,4,4v1.8C486.6,515.3,484.8,517.1,482.6,517.1z"/>
		<g id="lights">
			<rect x="472.5" y="501.1" class="st26" width="10.5" height="1.6"/>
			<rect x="472.5" y="495.7" class="st26" width="10.5" height="1.6"/>
			<rect x="472.5" y="490.2" class="st26" width="10.5" height="1.6"/>
		</g>
		<rect x="386.7" y="422.9" class="st27" width="15.5" height="42.7"/>
		<g id="window">
			<path class="st28" d="M412.4,421.9h12c4.6,0,8.7,2.9,10.2,7.2l12.7,36.4h-34.8c-2.9,0-5.2-2.3-5.2-5.2V427
				C407.2,424.2,409.5,421.9,412.4,421.9z"/>
			<path class="st29" d="M416.5,465.6h-5.8c-1.9,0-3.5-1.6-3.5-3.5V456h9.3V465.6z"/>
			<path class="st30" d="M410,462.5l23.4-34.5c0.1-0.2,0.4-0.5,1,0.9l12.7,36.4c0.1,0.1-0.1,0.3-0.2,0.3h-35.5c-0.6,0-1.2-0.4-1.4-1
				l-0.2-0.6C409.6,463.5,409.7,462.9,410,462.5z"/>
			<path class="st31" d="M443.8,455.9l-9.4-27.1c-0.6-1.4-0.9-1-1-0.9l-19,28H443.8z"/>
		</g>
		<g id="wheel_x2B_hole">
			<path id="hole" class="st21" d="M455.1,535.1c0.1-0.7,0.1-1.5,0.1-2.2c0-15.7-12.7-28.4-28.4-28.4c-15.7,0-28.4,12.7-28.4,28.4
				c0,0.8,0,1.5,0.1,2.2H455.1z"/>
			<g id="Wheel">
				<ellipse class="st1" cx="427.2" cy="532.5" rx="23" ry="20.8"/>
				<circle class="st2" cx="429.6" cy="532.2" r="20.6"/>
				<circle class="st22" cx="429.6" cy="532.2" r="12.9"/>
				<circle class="st12" cx="429.6" cy="532.2" r="6.9"/>
			</g>
		</g>
		<path class="st32" d="M415.7,417.9h-43.2v-11.8h30.3C410,406.2,415.7,410.8,415.7,417.9L415.7,417.9z"/>
		<g id="mirror">
			<g>
				<path class="st27" d="M437.1,423.9h15.2c1.8,0,3.4,1.2,4,2.9l3.3,10.7c0.4,1.4-0.6,3.5-2.1,3.5h-5.6l-4.3-14l-8.1-0.1
					L437.1,423.9z"/>
			</g>
			<polygon class="st33" points="447,427 448.7,427 453.2,440.7 451.9,440.7 			"/>
		</g>
	</g>
</g>
<rect x="160.5" y="397.9" class="st34" width="48.7" height="118.5"/>
<polygon class="st35" points="209.8,397.2 161.2,397.2 160.5,397.9 209.1,397.9 "/>
<polygon class="st35" points="209.7,397.2 209.1,397.9 209.1,516.4 209.7,515.7 "/>
</svg>
