<?xml version="1.0" encoding="utf-8"?>
<!-- Generator: Adobe Illustrator 19.0.0, SVG Export Plug-In . SVG Version: 6.00 Build 0)  -->
<svg version="1.1" id="Layer_1" xmlns="http://www.w3.org/2000/svg" xmlns:xlink="http://www.w3.org/1999/xlink" x="0px" y="0px"
	 viewBox="-7 289 580 263.9" style="enable-background:new -7 289 580 263.9;" xml:space="preserve">
<style type="text/css">
	.st0{display:none;fill:#7AD6C2;stroke:#E36F32;stroke-miterlimit:10;}
	.st1{fill:#B87A2C;}
	.st2{fill:#DE8F36;}
	.st3{fill:#966942;}
	.st4{opacity:0.8;fill:#C98631;enable-background:new    ;}
	.st5{fill:#AD885D;}
	.st6{fill:#4E3D39;}
	.st7{fill:#664E49;}
	.st8{fill:#4E3C38;}
	.st9{fill:#EDE7B3;}
	.st10{fill:#D3D0AB;}
	.st11{display:none;fill:#B6B590;}
	.st12{fill:#B6B590;}
	.st13{fill:#855F70;}
	.st14{display:none;fill:#B6B590;enable-background:new    ;}
	.st15{font-family:'MyriadPro-Bold';}
	.st16{font-size:10px;}
	.st17{fill:#CCCBA1;}
	.st18{fill:#B4B38E;}
	.st19{fill:#D55F3C;}
	.st20{fill:#F47A3B;}
	.st21{fill:#694C5B;}
	.st22{fill:#5C4250;}
	.st23{fill:#E3E1B2;}
	.st24{fill:#B5B38E;}
	.st25{fill:#C2C19A;}
	.st26{fill:#363837;}
	.st27{fill:#E4E3B4;}
	.st28{fill:#E36F32;stroke:#E36F32;stroke-miterlimit:10;}
	.st29{fill:#E06442;}
	.st30{fill:#FFAE3E;}
	.st31{fill:#A3453C;}
	.st32{fill:#E36F32;}
	.st33{fill:#B7DFD4;}
	.st34{fill:#A6CAC1;}
	.st35{fill:#87ADA4;}
	.st36{fill:#A8D7CB;}
	.st37{fill:#C2542E;}
	.st38{fill:#6D4452;}
	.st39{display:none;}
	.st40{display:inline;fill:#FFFFFF;}
	.st41{display:inline;fill:#626262;}
	.st42{display:inline;fill:#707070;}
	.st43{fill:#59B144;}
	.st44{fill:#279C42;}
	.st45{fill:#663C18;}
</style>
<image style="display:none;overflow:visible;enable-background:new    ;" width="581" height="361" xlink:href="86800173.png"  transform="matrix(0.9983 0 0 0.9972 -2.5002 288.99)">
</image>
<rect id="Background" x="-2.5" y="289" class="st0" width="580" height="360"/>
<g id="boxes_in_the_left">
	<g>
		<rect x="73.9" y="528.1" class="st1" width="11" height="24.9"/>
		<rect x="84.9" y="528.1" class="st2" width="17.4" height="24.9"/>
		<polygon class="st3" points="80.9,528.1 80.9,532.6 80.6,532.4 80.4,532.4 80.1,532.2 79.9,532.3 79.6,532 79.3,532.1 79.1,531.8 
			78.9,531.9 78.6,531.7 78.4,531.8 78.1,531.5 77.8,531.6 77.8,528.1 		"/>
	</g>
	<g>
		<rect x="96.2" y="511.6" class="st1" width="13.3" height="41.4"/>
		<rect x="108.2" y="511.6" class="st2" width="34.3" height="41.4"/>
		<polygon class="st4" points="108.2,545.1 142.5,520.6 142.5,552.9 108.2,552.9 		"/>
		<polygon class="st3" points="103.9,511.6 103.9,517 103.6,516.7 103.3,516.8 103.1,516.5 102.8,516.6 102.6,516.3 102.3,516.4 
			102,516.1 101.8,516.2 101.6,515.9 101.3,516 101.1,515.7 100.8,515.8 100.8,511.6 		"/>
		<polygon class="st5" points="123.8,511.6 123.8,515.6 124.1,515.4 124.4,515.4 124.6,515.2 124.9,515.3 125.1,515.1 125.4,515.1 
			125.6,514.9 125.9,515 126.1,514.8 126.3,514.8 126.6,514.6 126.9,514.7 126.9,511.6 		"/>
	</g>
</g>
<g id="Truck">
	<g id="wheel_on_the_back">
		<ellipse class="st6" cx="372.5" cy="532.5" rx="23" ry="20.8"/>
		<circle class="st7" cx="375" cy="532.2" r="20.6"/>
		<circle class="st8" cx="375" cy="532.2" r="12.9"/>
	</g>
	<g id="wheel_on_the_back_1_">
		<ellipse class="st6" cx="209.2" cy="532.4" rx="23" ry="20.8"/>
		<circle class="st7" cx="211.6" cy="532.2" r="20.6"/>
		<circle class="st8" cx="211.6" cy="532.2" r="12.9"/>
	</g>
	<g id="rightside">
		<rect x="217.4" y="384.7" class="st9" width="155.1" height="137.8"/>
		<polygon class="st10" points="217.4,415.4 300.4,415.4 274.4,456.6 372.5,456.6 372.5,472.1 240.6,472.1 268.4,427.4 217.4,427.6 
					"/>
		<polygon class="st11" points="271.7,438.2 264.5,438.2 278.3,458.7 285.3,458.7 		"/>
		<polygon class="st11" points="254.4,438.2 247.3,438.2 261.1,458.7 268.1,458.7 		"/>
		<polygon class="st11" points="340.8,431.3 348,431.3 334.2,451.8 327.2,451.8 		"/>
		<polygon class="st11" points="357.4,431.3 364.6,431.3 350.8,451.8 343.8,451.8 		"/>
		<rect x="217.4" y="391.8" class="st12" width="155.1" height="4"/>
		<rect x="217.4" y="509.6" class="st12" width="155.1" height="4"/>
		<rect x="217.4" y="522.4" class="st13" width="155.1" height="13.2"/>
		<text transform="matrix(1 0 0 1 255.63 467.8232)" class="st14 st15 st16">ITALO EXPRESS COURIER</text>
		<g>
			<path class="st12" d="M258.5,461.1v6.7H257v-6.7H258.5z"/>
			<path class="st12" d="M261.1,462.4h-1.8v-1.3h5.2v1.3h-1.8v5.5h-1.5v-5.5H261.1z"/>
			<path class="st12" d="M266.2,466.1l-0.5,1.7h-1.6l2.1-6.7h2l2.1,6.7h-1.6l-0.5-1.7H266.2z M267.9,465l-0.4-1.4
				c-0.1-0.4-0.2-0.9-0.3-1.3l0,0c-0.1,0.4-0.2,0.9-0.3,1.3l-0.4,1.4H267.9z"/>
			<path class="st12" d="M271.2,461.1h1.5v5.5h2.7v1.3h-4.2V461.1z"/>
			<path class="st12" d="M282.1,464.4c0,2.2-1.3,3.5-3.3,3.5s-3.2-1.5-3.2-3.4c0-2,1.3-3.5,3.3-3.5S282.1,462.5,282.1,464.4z
				 M277.2,464.5c0,1.3,0.6,2.2,1.6,2.2s1.6-1,1.6-2.3c0-1.2-0.6-2.2-1.6-2.2C277.8,462.2,277.2,463.2,277.2,464.5z"/>
			<path class="st12" d="M289.1,465h-2.5v1.6h2.8v1.2h-4.3v-6.7h4.2v1.2h-2.6v1.4h2.5v1.3H289.1z"/>
			<path class="st12" d="M294,467.8l-0.6-1.2c-0.3-0.5-0.4-0.8-0.6-1.2l0,0c-0.1,0.4-0.3,0.7-0.5,1.2l-0.6,1.2H290l1.9-3.4l-1.9-3.3
				h1.7l0.6,1.2c0.2,0.4,0.4,0.7,0.5,1.1l0,0c0.2-0.4,0.3-0.7,0.5-1.1l0.6-1.2h1.7l-1.9,3.3l2,3.4H294z"/>
			<path class="st12" d="M296.5,461.2c0.5-0.1,1.1-0.1,2.1-0.1c0.9,0,1.6,0.2,2.1,0.5c0.4,0.3,0.7,0.9,0.7,1.6s-0.2,1.2-0.6,1.6
				c-0.5,0.5-1.3,0.7-2.2,0.7c-0.2,0-0.4,0-0.5,0v2.4h-1.5v-6.7H296.5z M298.1,464.2c0.1,0,0.3,0,0.5,0c0.8,0,1.3-0.4,1.3-1.1
				c0-0.6-0.4-1-1.2-1c-0.3,0-0.5,0-0.6,0.1L298.1,464.2L298.1,464.2z"/>
			<path class="st12" d="M302.4,461.2c0.5-0.1,1.2-0.1,2-0.1c1,0,1.7,0.1,2.2,0.5c0.4,0.3,0.6,0.8,0.6,1.4c0,0.9-0.6,1.4-1.2,1.7
				l0,0c0.5,0.2,0.7,0.6,0.9,1.3c0.2,0.8,0.4,1.6,0.5,1.9h-1.6c-0.1-0.2-0.3-0.7-0.5-1.6c-0.2-0.8-0.5-1.1-1.1-1.1h-0.5v2.6h-1.5
				v-6.6H302.4z M303.9,464.1h0.6c0.8,0,1.2-0.4,1.2-1s-0.4-0.9-1.1-0.9c-0.4,0-0.6,0-0.7,0V464.1z"/>
			<path class="st12" d="M312.3,465h-2.5v1.6h2.8v1.2h-4.3v-6.7h4.2v1.2h-2.6v1.4h2.5v1.3H312.3z"/>
			<path class="st12" d="M313.7,466.3c0.4,0.2,1,0.4,1.7,0.4s1.1-0.3,1.1-0.7s-0.3-0.7-1.1-0.9c-1.1-0.4-1.8-1-1.8-2
				c0-1.1,1-2,2.5-2c0.8,0,1.3,0.2,1.7,0.3l-0.3,1.2c-0.3-0.1-0.7-0.3-1.4-0.3c-0.7,0-1,0.3-1,0.6c0,0.4,0.4,0.6,1.3,0.9
				c1.2,0.4,1.7,1.1,1.7,2c0,1.1-0.9,2.1-2.7,2.1c-0.8,0-1.5-0.2-1.9-0.4L313.7,466.3z"/>
			<path class="st12" d="M319.1,466.3c0.4,0.2,1,0.4,1.7,0.4s1.1-0.3,1.1-0.7s-0.3-0.7-1.1-0.9c-1.1-0.4-1.8-1-1.8-2
				c0-1.1,1-2,2.5-2c0.8,0,1.3,0.2,1.7,0.3l-0.3,1.2c-0.3-0.1-0.8-0.3-1.4-0.3c-0.7,0-1,0.3-1,0.6c0,0.4,0.4,0.6,1.2,0.9
				c1.2,0.4,1.7,1.1,1.7,2c0,1.1-0.9,2.1-2.7,2.1c-0.8,0-1.5-0.2-1.9-0.4L319.1,466.3z"/>
			<path class="st12" d="M331.4,467.6c-0.3,0.1-0.9,0.3-1.7,0.3c-2.3,0-3.5-1.4-3.5-3.4c0-2.3,1.6-3.6,3.7-3.6
				c0.8,0,1.4,0.2,1.7,0.3l-0.3,1.2c-0.3-0.1-0.7-0.3-1.3-0.3c-1.2,0-2.1,0.7-2.1,2.2c0,1.3,0.8,2.2,2.2,2.2c0.5,0,1-0.1,1.3-0.2
				L331.4,467.6z"/>
			<path class="st12" d="M338.3,464.4c0,2.2-1.3,3.5-3.3,3.5s-3.2-1.5-3.2-3.4c0-2,1.3-3.5,3.3-3.5
				C337.1,461,338.3,462.5,338.3,464.4z M333.4,464.5c0,1.3,0.6,2.2,1.6,2.2s1.6-1,1.6-2.3c0-1.2-0.6-2.2-1.6-2.2
				S333.4,463.2,333.4,464.5z"/>
			<path class="st12" d="M340.8,461.1v3.9c0,1.2,0.4,1.7,1.2,1.7c0.8,0,1.2-0.6,1.2-1.7v-3.9h1.5v3.8c0,2.1-1,3.1-2.8,3.1
				c-1.7,0-2.7-0.9-2.7-3.1v-3.8H340.8z"/>
			<path class="st12" d="M346.1,461.2c0.5-0.1,1.2-0.1,2-0.1c1,0,1.7,0.1,2.2,0.5c0.4,0.3,0.6,0.8,0.6,1.4c0,0.9-0.6,1.4-1.2,1.7
				l0,0c0.5,0.2,0.7,0.6,0.9,1.3c0.2,0.8,0.4,1.6,0.5,1.9h-1.6c-0.1-0.2-0.3-0.7-0.5-1.6c-0.2-0.8-0.5-1.1-1.1-1.1h-0.5v2.6h-1.5
				v-6.6H346.1z M347.6,464.1h0.6c0.8,0,1.2-0.4,1.2-1s-0.4-0.9-1.1-0.9c-0.4,0-0.6,0-0.7,0V464.1z"/>
			<path class="st12" d="M353.5,461.1v6.7H352v-6.7H353.5z"/>
			<path class="st12" d="M358.9,465h-2.5v1.6h2.8v1.2h-4.3v-6.7h4.2v1.2h-2.6v1.4h2.5v1.3H358.9z"/>
			<path class="st12" d="M360.2,461.2c0.5-0.1,1.2-0.1,2-0.1c1,0,1.7,0.1,2.2,0.5c0.4,0.3,0.6,0.8,0.6,1.4c0,0.9-0.6,1.4-1.2,1.7
				l0,0c0.5,0.2,0.7,0.6,0.9,1.3c0.2,0.8,0.4,1.6,0.5,1.9h-1.6c-0.1-0.2-0.3-0.7-0.5-1.6c-0.2-0.8-0.5-1.1-1.1-1.1h-0.5v2.6H360
				v-6.6H360.2z M361.7,464.1h0.6c0.8,0,1.2-0.4,1.2-1s-0.4-0.9-1.1-0.9c-0.4,0-0.6,0-0.7,0V464.1z"/>
		</g>
	</g>
	<g id="back">
		<rect x="151.7" y="384.7" class="st17" width="65.7" height="137.8"/>
		<rect x="160.5" y="397.9" class="st18" width="5.5" height="118.5"/>
		<path class="st19" d="M217.4,513.6h-64.5c-2.4,0-4.3-1.9-4.3-4.3v-3c0-1.9,1.6-3.5,3.5-3.5h65.3V513.6z"/>
		<rect x="217.4" y="502.9" class="st20" width="13.7" height="10.7"/>
		<rect x="166" y="397.9" class="st21" width="43.2" height="118.5"/>
		<polygon class="st22" points="166.5,398.4 209.2,516.4 166,516.4 		"/>
		<path class="st21" d="M153.4,522.3h64v13.3h-63.9c-3.4,0-6.1-2.7-6.1-6.1v-1.2C147.4,525.1,150.1,522.3,153.4,522.3z"/>
	</g>
	<g id="scivolo">
		<polyline class="st23" points="160.5,516.8 198.5,516.8 198.5,525.4 162.1,548.7 115.6,548.7 		"/>
		<rect x="115.6" y="548.7" class="st24" width="46.5" height="4.3"/>
		<polygon class="st24" points="198.5,528.9 162.1,552.9 162.1,548.6 198.5,524.8 		"/>
		<rect x="161.2" y="521.4" class="st25" width="35.8" height="0.6"/>
		<rect x="150.7" y="528.5" class="st25" width="35.8" height="0.6"/>
		<rect x="139.9" y="535.6" class="st25" width="35.8" height="0.6"/>
		<rect x="129" y="542.7" class="st25" width="35.8" height="0.6"/>
	</g>
	<g id="wheel_x2B_hole_1_">
		<path id="hole_1_" class="st26" d="M299.2,534.5c0.1-0.7,0.1-1.5,0.1-2.2c0-15.7-12.7-28.4-28.4-28.4c-15.7,0-28.4,12.7-28.4,28.4
			c0,0.8,0,1.5,0.1,2.2H299.2z"/>
		<g id="Wheel_1_">
			<ellipse class="st6" cx="271.3" cy="532" rx="23" ry="20.9"/>
			<circle class="st7" cx="273.7" cy="531.6" r="20.6"/>
			<circle class="st27" cx="273.7" cy="531.6" r="12.9"/>
			<circle class="st17" cx="273.7" cy="531.6" r="6.9"/>
		</g>
	</g>
	<g id="fiancata">
		<path class="st28" d="M483.4,522.4h-101v-40h97.9c1.7,0,3.1,1.4,3.1,3.1V522.4z"/>
		<path class="st13" d="M481.8,535.1h-99.4v-13.2h99.4c3.4,0,6.1,2.7,6.1,6.1v1.1C487.9,532.4,485.1,535.1,481.8,535.1z"/>
		<polygon class="st21" points="382.4,535.1 372.4,535.1 372.5,521.8 382.4,521.8 		"/>
		<path class="st20" d="M380.6,482.4H482l-2.9-5.1c-2-3.6-5.5-6.1-9.6-7l-17.9-3.9l-12.2-37.8c-0.4-1.3-1.2-2.5-2.1-3.5l-1.8-2.2
			c-2.6-3.2-6.6-5-10.7-5h-44.1L380.6,482.4L380.6,482.4z"/>
		<rect x="372.5" y="417.9" class="st29" width="9.9" height="103.9"/>
		<path class="st30" d="M482.6,517.1h-12.1v-9.8h12.1c2.2,0,4,1.8,4,4v1.8C486.6,515.3,484.8,517.1,482.6,517.1z"/>
		<g id="lights">
			<rect x="472.5" y="501.1" class="st31" width="10.5" height="1.6"/>
			<rect x="472.5" y="495.7" class="st31" width="10.5" height="1.6"/>
			<rect x="472.5" y="490.2" class="st31" width="10.5" height="1.6"/>
		</g>
		<rect x="386.7" y="422.9" class="st32" width="15.5" height="42.7"/>
		<g id="window">
			<path class="st33" d="M412.4,421.9h12c4.6,0,8.7,2.9,10.2,7.2l12.7,36.4h-34.8c-2.9,0-5.2-2.3-5.2-5.2V427
				C407.2,424.2,409.5,421.9,412.4,421.9z"/>
			<path class="st34" d="M416.5,465.6h-5.8c-1.9,0-3.5-1.6-3.5-3.5V456h9.3V465.6z"/>
			<path class="st35" d="M410,462.5l23.4-34.5c0.1-0.2,0.4-0.5,1,0.9l12.7,36.4c0.1,0.1-0.1,0.3-0.2,0.3h-35.5c-0.6,0-1.2-0.4-1.4-1
				l-0.2-0.6C409.6,463.5,409.7,462.9,410,462.5z"/>
			<path class="st36" d="M443.8,455.9l-9.4-27.1c-0.6-1.4-0.9-1-1-0.9l-19,28H443.8z"/>
		</g>
		<g id="wheel_x2B_hole">
			<path id="hole" class="st26" d="M455.1,535.1c0.1-0.7,0.1-1.5,0.1-2.2c0-15.7-12.7-28.4-28.4-28.4c-15.7,0-28.4,12.7-28.4,28.4
				c0,0.8,0,1.5,0.1,2.2H455.1z"/>
			<g id="Wheel">
				<ellipse class="st6" cx="427.2" cy="532.5" rx="23" ry="20.8"/>
				<circle class="st7" cx="429.6" cy="532.2" r="20.6"/>
				<circle class="st27" cx="429.6" cy="532.2" r="12.9"/>
				<circle class="st17" cx="429.6" cy="532.2" r="6.9"/>
			</g>
		</g>
		<path class="st37" d="M415.7,417.9h-43.2v-11.8h30.3C410,406.2,415.7,410.8,415.7,417.9L415.7,417.9z"/>
		<g id="mirror">
			<g>
				<path class="st32" d="M437.1,423.9h15.2c1.8,0,3.4,1.2,4,2.9l3.3,10.7c0.4,1.4-0.6,3.5-2.1,3.5h-5.6l-4.3-14l-8.1-0.1
					L437.1,423.9z"/>
			</g>
			<polygon class="st38" points="447,427 448.7,427 453.2,440.7 451.9,440.7 			"/>
		</g>
	</g>
</g>
<g id="boxes_inside">
	<g>
		<rect x="183.2" y="458.7" class="st1" width="17.8" height="57.3"/>
		<rect x="201" y="458.7" class="st2" width="8.4" height="57.4"/>
		<polygon class="st3" points="193.7,458.7 193.7,467.2 193.4,466.7 193.1,466.8 192.9,466.4 192.6,466.5 192.4,466.1 192.1,466.2 
			191.8,465.8 191.6,465.9 191.4,465.5 191.1,465.6 190.9,465.1 190.6,465.3 190.6,458.7 		"/>
	</g>
	<g>
		<rect x="173" y="481.8" class="st1" width="13.8" height="34.3"/>
		<rect x="186.7" y="481.8" class="st2" width="22.6" height="34.3"/>
		<polygon class="st5" points="196.1,481.8 196.1,487.4 196.4,487.1 196.7,487.2 196.9,486.9 197.2,487 197.4,486.7 197.7,486.7 
			198,486.5 198.2,486.6 198.4,486.3 198.7,486.4 199,486.1 199.3,486.2 199.3,481.8 		"/>
		<polygon class="st3" points="181.4,481.8 181.4,485.9 181.1,485.6 180.9,485.7 180.6,485.5 180.4,485.5 180.1,485.3 179.8,485.4 
			179.6,485.2 179.4,485.2 179.1,485 178.9,485.1 178.6,484.9 178.3,485 178.3,481.8 		"/>
	</g>
	<polygon class="st4" points="205.1,458.7 209.4,458.7 209.4,516.1 193.5,516.1 	"/>
</g>
<g id="Boxes_on_the_right">
	<g id="box3">
		<rect x="241.9" y="489.2" class="st1" width="17.3" height="63.8"/>
		<rect x="258.2" y="489.2" class="st2" width="19.6" height="63.8"/>
		<rect x="258.2" y="535.8" class="st4" width="19.6" height="17.3"/>
		<polygon class="st5" points="266.2,489.2 266.2,497.7 266.5,497.2 266.7,497.3 267,496.9 267.2,497 267.5,496.6 267.8,496.7 
			268,496.3 268.2,496.4 268.5,496 268.7,496.1 269,495.6 269.3,495.8 269.3,489.2 		"/>
		<polygon class="st3" points="251.6,489.2 251.6,493.2 251.3,493 251.1,493.1 250.8,492.9 250.6,492.9 250.3,492.7 250,492.8 
			249.8,492.6 249.6,492.6 249.3,492.4 249.1,492.5 248.8,492.3 248.5,492.3 248.5,489.2 		"/>
	</g>
	<g id="box2">
		<rect x="198.1" y="513.1" class="st1" width="16.6" height="39.9"/>
		<rect x="214.7" y="513.1" class="st2" width="39.9" height="39.9"/>
		<polygon class="st4" points="214.7,552.9 254.6,513.3 254.6,553.2 		"/>
		<polygon class="st4" points="224.7,538.1 224.7,543 229.7,538 		"/>
		<polygon class="st3" points="208,513.1 208,517.1 207.7,516.9 207.4,516.9 207.2,516.7 206.9,516.8 206.7,516.6 206.4,516.6 
			206.2,516.4 205.9,516.5 205.7,516.3 205.5,516.3 205.2,516.1 204.9,516.2 204.9,513.1 		"/>
		<polygon class="st5" points="232.2,513.1 232.2,518.7 232.5,518.4 232.8,518.4 233,518.2 233.3,518.2 233.5,518 233.8,518 
			234,517.7 234.3,517.8 234.5,517.5 234.7,517.6 235,517.3 235.3,517.4 235.3,513.1 		"/>
	</g>
	<g id="box1">
		<rect x="227.4" y="540.1" class="st1" width="9" height="12.9"/>
		<rect x="236.4" y="540.1" class="st2" width="49.4" height="12.9"/>
		<polygon class="st3" points="233.2,540.1 233.2,541.9 232.9,541.8 232.6,541.9 232.4,541.8 232.1,541.8 231.9,541.7 231.6,541.7 
			231.3,541.6 231.1,541.7 230.9,541.6 230.6,541.6 230.4,541.5 230.1,541.5 230.1,540.1 		"/>
	</g>
</g>
<g id="Clouds" class="st39">
	<path class="st40" d="M368.5,346.9c0-0.7-0.1-3.9,2.3-6.6c2.8-3.1,6.6-3.1,7.1-3.1c-2.1-4.6-1.4-9.9,1.7-13.7
		c4.4-5.4,11.3-4.6,11.7-4.6c0.1-7.4,5-14,12-16.3c7.1-2.3,15,0.2,19.4,6.3c2.5-5.7,8.7-8.5,14.3-6.9c4.9,1.5,8.4,6.3,8.3,11.7
		c1.7,2,3.4,4,5.1,6c1.5-0.6,4.9-1.8,9.1-1.1c5.7,0.8,9.2,4.3,10.3,5.4c3-6.4,9.5-10.4,16.3-10c7.6,0.4,14.1,6.1,15.7,13.9
		c1.3-0.3,8.6-1.7,15.4,3c8.1,5.6,8.5,15,8.6,16C473.4,346.9,421,346.9,368.5,346.9z"/>
	<path class="st40" d="M146.6,365.3h99c0-0.6-0.2-4.7-3.7-7.7c-3.4-2.9-7.4-2.4-8-2.3c0.1-6.4-3.3-12.3-8.7-15
		c-6.6-3.4-15.3-1.4-20.3,5C200.7,337,192,332,183,332.6c-9.9,0.7-18.4,8.1-20.7,18.1c-1.4,0.1-6.2,0.7-10.3,4.6
		C147.8,359.2,146.9,363.9,146.6,365.3z"/>
	<path class="st40" d="M123.5,332.6c0.2-3.2-1.4-6.3-4.1-7.9c-3.1-1.8-6.3-0.8-6.9-0.7c-0.1-0.9-0.4-4.7-3.6-7.7
		c-3.9-3.7-9-3.1-9.6-3c-0.3-0.7-1.1-3-3.6-4.6c-1.5-1-3-1.2-3.8-1.3c-2.8-6.5-9.2-10.7-16.2-10.7c-6.9,0.1-13.2,4.2-16,10.7
		c-1-0.2-5.6-0.8-9.9,2.3c-5.7,4.1-5.4,11.2-5.3,11.7c-0.9-0.2-4.6-1.1-8.4,1c-3.5,2-5.6,5.9-5.6,10.2
		C61.6,332.6,92.6,332.6,123.5,332.6z"/>
</g>
<g id="Road" class="st39">
	<rect x="-2.5" y="552.8" class="st41" width="580" height="4.7"/>
	<rect x="-2.5" y="556.5" class="st42" width="580" height="10.7"/>
</g>
<path id="Bush" class="st43" d="M502.1,553.1H548c0.2-0.7,1.2-5.1-1.7-9.3c-2.9-4.3-7.7-4.9-8.3-4.9c-2.5-7.9-10.5-12.8-18.3-11.5
	c-8.5,1.4-14.7,9.5-13.6,18.5c-0.2,0-2.9,0.5-4,3C501.1,550.9,502,552.8,502.1,553.1z"/>
<g id="Tree">
	<g>
		<path class="st43" d="M44.1,386.2v107.2c-14-0.4-26.6-8-33-19.9c-7.5-14-5.2-31.7,5.9-44c-0.5-0.9-7.2-15.1,1.1-28.9
			C26.7,386.3,43.3,386.2,44.1,386.2z"/>
		<path class="st44" d="M44.1,386.2v107.2c14-0.4,26.6-8,33-19.9c7.5-14,5.2-31.7-5.9-44c0.5-0.9,7.2-15.1-1.1-28.9
			C61.5,386.3,44.8,386.2,44.1,386.2z"/>
	</g>
	<g>
		<path class="st45" d="M59.8,449.9l-12.9,32.8v15.7L66.4,452c0.9-2-0.2-4.3-2-4.9C62.6,446.4,60.3,447.6,59.8,449.9z"/>
		<path class="st45" d="M41.4,460.7l-7.4-18c-1.2-1.4-3.2-1.9-4.8-1.1c-1.6,0.8-2.5,2.6-2.2,4.4c4.6,10.4,9.8,22.3,14.4,32.7V460.7z
			"/>
		<path class="st45" d="M40.8,553.6V435.2c0.1-0.1,0.9-1.9,2.8-2.2c1.6-0.2,3.2,0.6,3.9,2.2c0,14.9,0,29.8,0,44.6
			c0,24.6,0,49.2,0,73.7h-6.7V553.6z"/>
	</g>
</g>
</svg>
