<?xml version="1.0" encoding="utf-8"?>
<!-- Generator: Adobe Illustrator 19.0.0, SVG Export Plug-In . SVG Version: 6.00 Build 0)  -->
<svg version="1.1" id="Layer_1" xmlns="http://www.w3.org/2000/svg" xmlns:xlink="http://www.w3.org/1999/xlink" x="0px" y="0px"
	 viewBox="0 0 108 67" style="enable-background:new 0 0 108 67;" xml:space="preserve">
<style type="text/css">
	.st0{fill:#B87A2C;}
	.st1{fill:#DE8F36;}
	.st2{opacity:0.8;fill:#C98631;}
	.st3{fill:#AD885D;}
	.st4{fill:#966942;}
</style>
<g id="Boxes_on_the_right">
	<g id="box3">
		<rect x="53.9" y="6.6" class="st0" width="15.4" height="60.1"/>
		<rect x="69.4" y="6.6" class="st1" width="18.5" height="60.1"/>
		<rect x="69.4" y="50.6" class="st2" width="18.5" height="16.3"/>
		<polygon class="st3" points="76.9,6.6 76.9,14.6 77.2,14.2 77.4,14.3 77.6,13.9 77.9,14 78.1,13.6 78.4,13.7 78.6,13.3 78.8,13.4 
			79,13 79.3,13.1 79.5,12.7 79.8,12.9 79.8,6.6 		"/>
		<polygon class="st4" points="63.1,6.6 63.1,10.4 62.8,10.2 62.6,10.3 62.4,10.1 62.1,10.1 61.9,10 61.6,10 61.4,9.8 61.2,9.9 
			61,9.7 60.7,9.7 60.5,9.5 60.2,9.6 60.2,6.6 		"/>
	</g>
	<g id="box2">
		<rect x="12.7" y="29.1" class="st0" width="15.7" height="37.9"/>
		<rect x="28.4" y="29.1" class="st1" width="37.6" height="37.9"/>
		<polygon class="st2" points="28.4,67.1 66,29.1 66,67 		"/>
		<polygon class="st2" points="37.7,52.8 37.7,57.6 42.6,52.7 		"/>
		<polygon class="st4" points="22,29.1 22,33 21.7,32.8 21.5,32.8 21.2,32.6 21,32.7 20.7,32.5 20.5,32.5 20.3,32.3 20,32.4 
			19.8,32.2 19.6,32.2 19.3,32.1 19,32.1 19,29.1 		"/>
		<polygon class="st3" points="44.8,29.1 44.8,34.4 45.1,34.2 45.4,34.2 45.6,34 45.8,34 46.1,33.8 46.3,33.8 46.6,33.6 46.8,33.6 
			47,33.4 47.2,33.4 47.5,33.2 47.8,33.3 47.8,29.1 		"/>
	</g>
	<g id="box1">
		<rect x="40.3" y="54.6" class="st0" width="8.5" height="12.5"/>
		<rect x="48.8" y="54.6" class="st1" width="46.6" height="12.5"/>
		<polygon class="st4" points="45.7,54.6 45.7,56.4 45.5,56.3 45.2,56.3 45,56.2 44.8,56.3 44.5,56.2 44.2,56.2 44,56.1 43.8,56.1 
			43.6,56 43.3,56.1 43.1,56 42.8,56 42.8,54.6 		"/>
	</g>
</g>
</svg>
